<svg id="Calque_1" data-name="Calque 1" xmlns="http://www.w3.org/2000/svg" viewBox="0 0 1020.47 793.7"><defs><style>.cls-1{fill:#fff;}.cls-2{fill:#d0d0d0;}.cls-2,.cls-3,.cls-4,.cls-5,.cls-6,.cls-7{stroke:#1d1d1b;stroke-miterlimit:10;}.cls-3{fill:#1d1d1b;}.cls-4{fill:#f0f0f0;}.cls-5{fill:#cacaca;}.cls-6{fill:#f2f2f2;}.cls-7{fill:none;}</style></defs><rect class="cls-1" width="1020.47" height="793.7"/><path class="cls-2" d="M123.31,386.93v-51h51v51Z"/><path class="cls-2" d="M123.31,457.8v-51h51v51Z"/><path class="cls-2" d="M245.2,406.77v51h-51v-51Z"/><path class="cls-2" d="M245.2,335.91v51h-51v-51Z"/><path class="cls-2" d="M406.77,245.2v-51h51v51Z"/><path class="cls-2" d="M406.77,316.06V265h51v51Z"/><path class="cls-2" d="M528.66,265v51h-51V265Z"/><path class="cls-2" d="M528.66,194.17v51h-51v-51Z"/><path class="cls-2" d="M265,245.2v-51h51v51Z"/><path class="cls-2" d="M265,316.06V265h51v51Z"/><path class="cls-2" d="M386.93,265v51h-51V265Z"/><path class="cls-2" d="M386.93,194.17v51h-51v-51Z"/><path class="cls-2" d="M246.61,192.76v51h-51v-51Z"/><path class="cls-2" d="M245.2,265v51h-51V265Z"/><path class="cls-2" d="M123.31,316.06V265h51v51Z"/><path class="cls-2" d="M124.72,243.78v-51h51v51Z"/><path class="cls-2" d="M386.93,335.91v51h-51v-51Z"/><path class="cls-2" d="M386.93,406.77v51h-51v-51Z"/><path class="cls-2" d="M265,457.8v-51h51v51Z"/><path class="cls-2" d="M265,386.93v-51h51v51Z"/><path class="cls-2" d="M123.31,528.66v-51h51v51Z"/><path class="cls-2" d="M123.31,599.53v-51h51v51Z"/><path class="cls-2" d="M245.2,548.5v51h-51v-51Z"/><path class="cls-2" d="M245.2,477.64v51h-51v-51Z"/><path class="cls-2" d="M406.77,670.39v-51h51v51Z"/><path class="cls-2" d="M406.77,741.26v-51h51v51Z"/><path class="cls-2" d="M528.66,690.24v51h-51v-51Z"/><path class="cls-2" d="M528.66,619.37v51h-51v-51Z"/><path class="cls-2" d="M123.31,670.39v-51h51v51Z"/><path class="cls-2" d="M123.31,741.26v-51h51v51Z"/><path class="cls-2" d="M245.2,690.24v51h-51v-51Z"/><path class="cls-2" d="M245.2,619.37v51h-51v-51Z"/><path class="cls-2" d="M265,670.39v-51h51v51Z"/><path class="cls-2" d="M265,741.26v-51h51v51Z"/><path class="cls-2" d="M386.93,690.24v51h-51v-51Z"/><path class="cls-2" d="M386.93,619.37v51h-51v-51Z"/><path class="cls-2" d="M386.93,477.64v51h-51v-51Z"/><path class="cls-2" d="M386.93,548.5v51h-51v-51Z"/><path class="cls-2" d="M265,599.53v-51h51v51Z"/><path class="cls-2" d="M265,528.66v-51h51v51Z"/><path class="cls-2" d="M528.66,477.64v51h-51v-51Z"/><path class="cls-2" d="M528.66,548.5v51h-51v-51Z"/><path class="cls-2" d="M406.77,599.53v-51h51v51Z"/><path class="cls-2" d="M406.77,528.66v-51h51v51Z"/><path class="cls-2" d="M528.66,335.91v51h-51v-51Z"/><path class="cls-2" d="M528.66,406.77v51h-51v-51Z"/><path class="cls-2" d="M406.77,457.8v-51h51v51Z"/><path class="cls-2" d="M406.77,386.93v-51h51v51Z"/><circle class="cls-2" cx="64.02" cy="95.2" r="21.5"/><circle class="cls-3" cx="63.78" cy="95.44" r="1.42"/><circle class="cls-2" cx="64.02" cy="219.44" r="21.5"/><circle class="cls-3" cx="63.78" cy="219.69" r="1.42"/><circle class="cls-2" cx="64.02" cy="290.31" r="21.5"/><circle class="cls-3" cx="63.78" cy="290.55" r="1.42"/><circle class="cls-2" cx="64.02" cy="361.18" r="21.5"/><circle class="cls-3" cx="63.78" cy="361.42" r="1.42"/><circle class="cls-2" cx="64.02" cy="432.04" r="21.5"/><circle class="cls-3" cx="63.78" cy="432.28" r="1.42"/><circle class="cls-2" cx="64.02" cy="502.91" r="21.5"/><circle class="cls-3" cx="63.78" cy="503.15" r="1.42"/><circle class="cls-2" cx="64.02" cy="573.78" r="21.5"/><circle class="cls-3" cx="63.78" cy="574.02" r="1.42"/><circle class="cls-2" cx="64.02" cy="644.64" r="21.5"/><circle class="cls-3" cx="63.78" cy="644.88" r="1.42"/><circle class="cls-2" cx="64.02" cy="715.51" r="21.5"/><circle class="cls-3" cx="63.78" cy="715.75" r="1.42"/><rect class="cls-4" x="149.06" y="82.69" width="127.56" height="28.35"/><rect class="cls-2" x="160.28" y="92.61" width="104.88" height="8.5" transform="translate(425.45 193.72) rotate(-180)"/><rect class="cls-5" x="157.56" y="78.43" width="22.68" height="36.85" transform="translate(337.8 193.72) rotate(-180)"/><circle class="cls-5" cx="270.7" cy="97.03" r="2.83"/><circle class="cls-5" cx="154.63" cy="96.86" r="2.83"/><rect class="cls-4" x="850.39" y="205.51" width="127.56" height="28.35"/><rect class="cls-2" x="861.62" y="215.43" width="104.88" height="8.5" transform="translate(1828.12 439.37) rotate(-180)"/><rect class="cls-5" x="858.9" y="201.26" width="22.68" height="36.85" transform="translate(1740.47 439.37) rotate(-180)"/><circle class="cls-5" cx="972.04" cy="219.86" r="2.83"/><circle class="cls-5" cx="855.97" cy="219.69" r="2.83"/><rect class="cls-4" x="850.39" y="276.38" width="127.56" height="28.35"/><rect class="cls-2" x="861.62" y="286.3" width="104.88" height="8.5" transform="translate(1828.12 581.1) rotate(-180)"/><rect class="cls-5" x="858.9" y="272.13" width="22.68" height="36.85" transform="translate(1740.47 581.1) rotate(-180)"/><circle class="cls-5" cx="972.04" cy="290.73" r="2.83"/><circle class="cls-5" cx="855.97" cy="290.55" r="2.83"/><rect class="cls-4" x="850.39" y="347.24" width="127.56" height="28.35"/><rect class="cls-2" x="861.62" y="357.17" width="104.88" height="8.5" transform="translate(1828.12 722.83) rotate(-180)"/><rect class="cls-5" x="858.9" y="342.99" width="22.68" height="36.85" transform="translate(1740.47 722.83) rotate(-180)"/><circle class="cls-5" cx="972.04" cy="361.59" r="2.83"/><circle class="cls-5" cx="855.97" cy="361.42" r="2.83"/><rect class="cls-4" x="850.39" y="418.11" width="127.56" height="28.35"/><rect class="cls-2" x="861.62" y="428.03" width="104.88" height="8.5" transform="translate(1828.12 864.57) rotate(-180)"/><rect class="cls-5" x="858.9" y="413.86" width="22.68" height="36.85" transform="translate(1740.47 864.57) rotate(-180)"/><circle class="cls-5" cx="972.04" cy="432.46" r="2.83"/><circle class="cls-5" cx="855.97" cy="432.28" r="2.83"/><rect class="cls-4" x="850.39" y="488.98" width="127.56" height="28.35"/><rect class="cls-2" x="861.62" y="498.9" width="104.88" height="8.5" transform="translate(1828.12 1006.3) rotate(-180)"/><rect class="cls-5" x="858.9" y="484.72" width="22.68" height="36.85" transform="translate(1740.47 1006.3) rotate(-180)"/><circle class="cls-5" cx="972.04" cy="503.32" r="2.83"/><circle class="cls-5" cx="855.97" cy="503.15" r="2.83"/><rect class="cls-4" x="850.39" y="559.84" width="127.56" height="28.35"/><rect class="cls-2" x="861.62" y="569.76" width="104.88" height="8.5" transform="translate(1828.12 1148.03) rotate(-180)"/><rect class="cls-5" x="858.9" y="555.59" width="22.68" height="36.85" transform="translate(1740.47 1148.03) rotate(-180)"/><circle class="cls-5" cx="972.04" cy="574.19" r="2.83"/><circle class="cls-5" cx="855.97" cy="574.02" r="2.83"/><rect class="cls-4" x="850.39" y="630.71" width="127.56" height="28.35"/><rect class="cls-2" x="861.62" y="640.63" width="104.88" height="8.5" transform="translate(1828.12 1289.76) rotate(-180)"/><rect class="cls-5" x="858.9" y="626.46" width="22.68" height="36.85" transform="translate(1740.47 1289.76) rotate(-180)"/><circle class="cls-5" cx="972.04" cy="645.06" r="2.83"/><circle class="cls-5" cx="855.97" cy="644.88" r="2.83"/><rect class="cls-4" x="850.39" y="701.57" width="127.56" height="28.35"/><rect class="cls-2" x="861.62" y="711.5" width="104.88" height="8.5" transform="translate(1828.12 1431.5) rotate(-180)"/><rect class="cls-5" x="858.9" y="697.32" width="22.68" height="36.85" transform="translate(1740.47 1431.5) rotate(-180)"/><circle class="cls-5" cx="972.04" cy="715.92" r="2.83"/><circle class="cls-5" cx="855.97" cy="715.75" r="2.83"/><rect class="cls-6" x="337.32" y="93.54" width="48.19" height="42.52"/><circle class="cls-2" cx="361.42" cy="94.96" r="24.09"/><line class="cls-7" x1="362.83" y1="96.38" x2="362.83" y2="70.87"/><rect class="cls-6" x="408.19" y="93.54" width="48.19" height="42.52"/><circle class="cls-2" cx="432.28" cy="94.96" r="24.09"/><line class="cls-7" x1="433.7" y1="96.38" x2="433.7" y2="70.87"/><rect class="cls-6" x="479.06" y="93.54" width="48.19" height="42.52"/><circle class="cls-2" cx="503.15" cy="94.96" r="24.09"/><line class="cls-7" x1="504.57" y1="96.38" x2="504.57" y2="70.87"/><rect class="cls-6" x="566.93" y="218.27" width="48.19" height="42.52"/><circle class="cls-2" cx="591.02" cy="219.69" r="24.09"/><line class="cls-7" x1="592.44" y1="221.1" x2="592.44" y2="195.59"/><rect class="cls-6" x="637.8" y="218.27" width="48.19" height="42.52"/><circle class="cls-2" cx="661.89" cy="219.69" r="24.09"/><line class="cls-7" x1="663.31" y1="221.1" x2="663.31" y2="195.59"/><rect class="cls-6" x="708.66" y="218.27" width="48.19" height="42.52"/><circle class="cls-2" cx="732.76" cy="219.69" r="24.09"/><line class="cls-7" x1="734.17" y1="221.1" x2="734.17" y2="195.59"/><rect class="cls-6" x="779.53" y="218.27" width="48.19" height="42.52"/><circle class="cls-2" cx="803.62" cy="219.69" r="24.09"/><line class="cls-7" x1="805.04" y1="221.1" x2="805.04" y2="195.59"/><rect class="cls-6" x="566.93" y="289.13" width="48.19" height="42.52"/><circle class="cls-2" cx="591.02" cy="290.55" r="24.09"/><line class="cls-7" x1="592.44" y1="291.97" x2="592.44" y2="266.46"/><rect class="cls-6" x="637.8" y="289.13" width="48.19" height="42.52"/><circle class="cls-2" cx="661.89" cy="290.55" r="24.09"/><line class="cls-7" x1="663.31" y1="291.97" x2="663.31" y2="266.46"/><rect class="cls-6" x="708.66" y="289.13" width="48.19" height="42.52"/><circle class="cls-2" cx="732.76" cy="290.55" r="24.09"/><line class="cls-7" x1="734.17" y1="291.97" x2="734.17" y2="266.46"/><rect class="cls-6" x="779.53" y="289.13" width="48.19" height="42.52"/><circle class="cls-2" cx="803.62" cy="290.55" r="24.09"/><line class="cls-7" x1="805.04" y1="291.97" x2="805.04" y2="266.46"/><rect class="cls-6" x="566.93" y="360" width="48.19" height="42.52"/><circle class="cls-2" cx="591.02" cy="361.42" r="24.09"/><line class="cls-7" x1="592.44" y1="362.83" x2="592.44" y2="337.32"/><rect class="cls-6" x="637.8" y="360" width="48.19" height="42.52"/><circle class="cls-2" cx="661.89" cy="361.42" r="24.09"/><line class="cls-7" x1="663.31" y1="362.83" x2="663.31" y2="337.32"/><rect class="cls-6" x="708.66" y="360" width="48.19" height="42.52"/><circle class="cls-2" cx="732.76" cy="361.42" r="24.09"/><line class="cls-7" x1="734.17" y1="362.83" x2="734.17" y2="337.32"/><rect class="cls-6" x="779.53" y="360" width="48.19" height="42.52"/><circle class="cls-2" cx="803.62" cy="361.42" r="24.09"/><line class="cls-7" x1="805.04" y1="362.83" x2="805.04" y2="337.32"/><rect class="cls-6" x="566.93" y="430.87" width="48.19" height="42.52"/><circle class="cls-2" cx="591.02" cy="432.28" r="24.09"/><line class="cls-7" x1="592.44" y1="433.7" x2="592.44" y2="408.19"/><rect class="cls-6" x="637.8" y="430.87" width="48.19" height="42.52"/><circle class="cls-2" cx="661.89" cy="432.28" r="24.09"/><line class="cls-7" x1="663.31" y1="433.7" x2="663.31" y2="408.19"/><rect class="cls-6" x="708.66" y="430.87" width="48.19" height="42.52"/><circle class="cls-2" cx="732.76" cy="432.28" r="24.09"/><line class="cls-7" x1="734.17" y1="433.7" x2="734.17" y2="408.19"/><rect class="cls-6" x="779.53" y="430.87" width="48.19" height="42.52"/><circle class="cls-2" cx="803.62" cy="432.28" r="24.09"/><line class="cls-7" x1="805.04" y1="433.7" x2="805.04" y2="408.19"/><rect class="cls-6" x="566.93" y="501.73" width="48.19" height="42.52"/><circle class="cls-2" cx="591.02" cy="503.15" r="24.09"/><line class="cls-7" x1="592.44" y1="504.57" x2="592.44" y2="479.06"/><rect class="cls-6" x="637.8" y="501.73" width="48.19" height="42.52"/><circle class="cls-2" cx="661.89" cy="503.15" r="24.09"/><line class="cls-7" x1="663.31" y1="504.57" x2="663.31" y2="479.06"/><rect class="cls-6" x="708.66" y="501.73" width="48.19" height="42.52"/><circle class="cls-2" cx="732.76" cy="503.15" r="24.09"/><line class="cls-7" x1="734.17" y1="504.57" x2="734.17" y2="479.06"/><rect class="cls-6" x="779.53" y="501.73" width="48.19" height="42.52"/><circle class="cls-2" cx="803.62" cy="503.15" r="24.09"/><line class="cls-7" x1="805.04" y1="504.57" x2="805.04" y2="479.06"/><rect class="cls-6" x="566.93" y="572.6" width="48.19" height="42.52"/><circle class="cls-2" cx="591.02" cy="574.02" r="24.09"/><line class="cls-7" x1="592.44" y1="575.43" x2="592.44" y2="549.92"/><rect class="cls-6" x="637.8" y="572.6" width="48.19" height="42.52"/><circle class="cls-2" cx="661.89" cy="574.02" r="24.09"/><line class="cls-7" x1="663.31" y1="575.43" x2="663.31" y2="549.92"/><rect class="cls-6" x="708.66" y="572.6" width="48.19" height="42.52"/><circle class="cls-2" cx="732.76" cy="574.02" r="24.09"/><line class="cls-7" x1="734.17" y1="575.43" x2="734.17" y2="549.92"/><rect class="cls-6" x="779.53" y="572.6" width="48.19" height="42.52"/><circle class="cls-2" cx="803.62" cy="574.02" r="24.09"/><line class="cls-7" x1="805.04" y1="575.43" x2="805.04" y2="549.92"/><rect class="cls-6" x="566.93" y="643.46" width="48.19" height="42.52"/><circle class="cls-2" cx="591.02" cy="644.88" r="24.09"/><line class="cls-7" x1="592.44" y1="646.3" x2="592.44" y2="620.79"/><rect class="cls-6" x="637.8" y="643.46" width="48.19" height="42.52"/><circle class="cls-2" cx="661.89" cy="644.88" r="24.09"/><line class="cls-7" x1="663.31" y1="646.3" x2="663.31" y2="620.79"/><rect class="cls-6" x="708.66" y="643.46" width="48.19" height="42.52"/><circle class="cls-2" cx="732.76" cy="644.88" r="24.09"/><line class="cls-7" x1="734.17" y1="646.3" x2="734.17" y2="620.79"/><rect class="cls-6" x="779.53" y="643.46" width="48.19" height="42.52"/><circle class="cls-2" cx="803.62" cy="644.88" r="24.09"/><line class="cls-7" x1="805.04" y1="646.3" x2="805.04" y2="620.79"/><rect class="cls-6" x="566.93" y="714.33" width="48.19" height="42.52"/><circle class="cls-2" cx="591.02" cy="715.75" r="24.09"/><line class="cls-7" x1="592.44" y1="717.17" x2="592.44" y2="691.65"/><rect class="cls-6" x="637.8" y="714.33" width="48.19" height="42.52"/><circle class="cls-2" cx="661.89" cy="715.75" r="24.09"/><line class="cls-7" x1="663.31" y1="717.17" x2="663.31" y2="691.65"/><rect class="cls-6" x="708.66" y="714.33" width="48.19" height="42.52"/><circle class="cls-2" cx="732.76" cy="715.75" r="24.09"/><line class="cls-7" x1="734.17" y1="717.17" x2="734.17" y2="691.65"/><rect class="cls-6" x="779.53" y="714.33" width="48.19" height="42.52"/><circle class="cls-2" cx="803.62" cy="715.75" r="24.09"/><line class="cls-7" x1="805.04" y1="717.17" x2="805.04" y2="691.65"/></svg>