<svg id="Calque_1" data-name="Calque 1" xmlns="http://www.w3.org/2000/svg" viewBox="0 0 841.89 1190.55"><defs><style>.cls-1,.cls-3{fill:#fff;}.cls-1{stroke:#1d1d1b;stroke-miterlimit:10;}.cls-2{fill:#010101;}.cls-3{stroke:#010101;stroke-linecap:round;stroke-linejoin:round;stroke-width:0.8px;}</style></defs><rect class="cls-1" x="99.21" y="552.76" width="566.93" height="425.2"/><path class="cls-2" d="M666.14,978V552.76H99.21V978Z"/><path class="cls-3" d="M513.35,559.84a4,4,0,1,0,7.94,0h0a4,4,0,1,0-7.94,0Z"/><path class="cls-3" d="M463.46,562.68h51v51h-51Z"/><path class="cls-3" d="M392.6,562.68h51v51h-51Z"/><path class="cls-3" d="M385.8,559.84a4,4,0,0,0,7.93,0h0a4,4,0,1,0-7.93,0Z"/><path class="cls-3" d="M385.8,687.4c-.08,5.15,8,5.15,7.93,0C393.81,682.25,385.72,682.25,385.8,687.4Z"/><path class="cls-3" d="M443.62,684.57h-51v-51h51Z"/><path class="cls-3" d="M514.49,684.57h-51v-51h51Z"/><path class="cls-3" d="M513.35,687.4a4,4,0,1,0,4-4A4,4,0,0,0,513.35,687.4Z"/><path class="cls-3" d="M655.09,843.31a4,4,0,1,0,7.93,0h0a4,4,0,1,0-7.93,0Z"/><path class="cls-3" d="M605.2,846.14h51v51h-51Z"/><path class="cls-3" d="M534.33,846.14h51v51h-51Z"/><path class="cls-3" d="M527.53,843.31a4,4,0,1,0,4-4A4,4,0,0,0,527.53,843.31Z"/><path class="cls-3" d="M527.53,970.87a4,4,0,1,0,4-4,4,4,0,0,0-4,4Z"/><path class="cls-3" d="M585.35,968h-51V917h51Z"/><path class="cls-3" d="M656.22,968h-51V917h51Z"/><path class="cls-3" d="M655.09,970.87a4,4,0,1,0,7.93,0h0a4,4,0,1,0-7.93,0Z"/><path class="cls-3" d="M655.09,701.57a4,4,0,1,0,7.93,0v0a4,4,0,0,0-7.93,0Z"/><path class="cls-3" d="M605.2,704.41h51v51h-51Z"/><path class="cls-3" d="M534.33,704.41h51v51h-51Z"/><path class="cls-3" d="M527.53,701.57a4,4,0,1,0,4-4,4,4,0,0,0-4,4Z"/><path class="cls-3" d="M527.53,829.13a4,4,0,1,0,7.93,0h0a4,4,0,0,0-7.93,0Z"/><path class="cls-3" d="M585.35,826.3h-51v-51h51Z"/><path class="cls-3" d="M656.22,826.3h-51v-51h51Z"/><path class="cls-3" d="M655.09,829.13a4,4,0,1,0,7.93,0h0a4,4,0,0,0-7.93,0Z"/><path class="cls-3" d="M655.09,687.4a4,4,0,1,0,7.93,0h0a4,4,0,0,0-7.93,0Z"/><path class="cls-3" d="M656.22,684.57h-51v-51h51Z"/><path class="cls-3" d="M585.35,684.57h-51v-51h51Z"/><path class="cls-3" d="M527.53,687.4a4,4,0,1,0,4-4A4,4,0,0,0,527.53,687.4Z"/><path class="cls-3" d="M527.53,559.84a4,4,0,1,0,7.93,0h0a4,4,0,1,0-7.93,0Z"/><path class="cls-3" d="M534.33,562.68h51v51h-51Z"/><path class="cls-3" d="M605.2,562.68h51v51h-51Z"/><path class="cls-3" d="M655.09,559.84a4,4,0,1,0,7.93,0h0a4,4,0,0,0-7.93,0Z"/><path class="cls-3" d="M513.35,829.13a4,4,0,0,0,7.94,0h0a4,4,0,0,0-7.94,0Z"/><path class="cls-3" d="M514.49,826.3h-51v-51h51Z"/><path class="cls-3" d="M443.62,826.3h-51v-51h51Z"/><path class="cls-3" d="M385.8,829.13a4,4,0,1,0,7.93,0h0a4,4,0,0,0-7.93,0Z"/><path class="cls-3" d="M385.8,701.57a4,4,0,1,0,7.93,0h0a4,4,0,0,0-7.93,0Z"/><path class="cls-3" d="M392.6,704.41h51v51h-51Z"/><path class="cls-3" d="M463.46,704.41h51v51h-51Z"/><path class="cls-3" d="M513.35,701.57a4,4,0,1,0,4-4,4,4,0,0,0-4,4Z"/><path class="cls-3" d="M371.62,559.84a4,4,0,1,0,7.94,0h0a4,4,0,1,0-7.94,0Z"/><path class="cls-3" d="M321.73,562.68h51v51h-51Z"/><path class="cls-3" d="M250.87,562.68h51v51h-51Z"/><path class="cls-3" d="M244.06,559.84a4,4,0,0,0,7.94,0h0a4,4,0,1,0-7.94,0Z"/><path class="cls-3" d="M244.06,687.4a4,4,0,1,0,4-4A4,4,0,0,0,244.06,687.4Z"/><path class="cls-3" d="M301.89,684.57h-51v-51h51Z"/><path class="cls-3" d="M372.76,684.57h-51v-51h51Z"/><path class="cls-3" d="M371.62,687.4a4,4,0,0,0,7.94,0h0a4,4,0,0,0-7.94,0Z"/><path class="cls-3" d="M229.89,843.31a4,4,0,1,0,4-4A4,4,0,0,0,229.89,843.31Z"/><path class="cls-3" d="M180,846.14h51v51H180Z"/><path class="cls-3" d="M109.13,846.14h51v51h-51Z"/><path class="cls-3" d="M102.33,843.31a4,4,0,0,0,7.94,0h0a4,4,0,1,0-7.94,0Z"/><path class="cls-3" d="M102.33,970.87a4,4,0,0,0,7.94,0h0a4,4,0,1,0-7.94,0Z"/><path class="cls-3" d="M160.16,968h-51V917h51Z"/><path class="cls-3" d="M231,968H180V917h51Z"/><path class="cls-3" d="M229.89,970.87a4,4,0,1,0,4-4,4,4,0,0,0-4,4Z"/><path class="cls-3" d="M229.89,559.84a4,4,0,1,0,7.94,0h0a4,4,0,1,0-7.94,0Z"/><path class="cls-3" d="M180,562.68h51v51H180Z"/><path class="cls-3" d="M109.13,562.68h51v51h-51Z"/><path class="cls-3" d="M102.33,559.84a4,4,0,1,0,7.94,0h0a4,4,0,0,0-7.94,0Z"/><path class="cls-3" d="M102.33,687.4a4,4,0,1,0,7.94,0h0a4,4,0,0,0-7.94,0Z"/><path class="cls-3" d="M160.16,684.57h-51v-51h51Z"/><path class="cls-3" d="M231,684.57H180v-51h51Z"/><path class="cls-3" d="M229.89,687.4a4,4,0,1,0,4-4A4,4,0,0,0,229.89,687.4Z"/><path class="cls-3" d="M229.89,701.57a4,4,0,1,0,4-4,4,4,0,0,0-4,4Z"/><path class="cls-3" d="M180,704.41h51v51H180Z"/><path class="cls-3" d="M109.13,704.41h51v51h-51Z"/><path class="cls-3" d="M102.33,701.57a4,4,0,1,0,7.94,0v0a4,4,0,0,0-7.94,0Z"/><path class="cls-3" d="M102.33,829.13a4,4,0,1,0,7.94,0h0a4,4,0,0,0-7.94,0Z"/><path class="cls-3" d="M160.16,826.3h-51v-51h51Z"/><path class="cls-3" d="M231,826.3H180v-51h51Z"/><path class="cls-3" d="M229.89,829.13a4,4,0,1,0,7.94,0h0a4,4,0,0,0-7.94,0Z"/><path class="cls-3" d="M371.62,829.13a4,4,0,0,0,7.94,0h0a4,4,0,0,0-7.94,0Z"/><path class="cls-3" d="M372.76,826.3h-51v-51h51Z"/><path class="cls-3" d="M301.89,826.3h-51v-51h51Z"/><path class="cls-3" d="M244.06,829.13a4,4,0,1,0,7.94,0h0a4,4,0,0,0-7.94,0Z"/><path class="cls-3" d="M244.06,701.57a4,4,0,1,0,4-4,4,4,0,0,0-4,4Z"/><path class="cls-3" d="M250.87,704.41h51v51h-51Z"/><path class="cls-3" d="M321.73,704.41h51v51h-51Z"/><path class="cls-3" d="M371.62,701.57a4,4,0,0,0,7.94,0h0a4,4,0,0,0-7.94,0Z"/><path class="cls-3" d="M371.62,970.87a4,4,0,0,0,7.94,0h0a4,4,0,0,0-7.94,0Z"/><path class="cls-3" d="M372.76,968h-51V917h51Z"/><path class="cls-3" d="M301.89,968h-51V917h51Z"/><path class="cls-3" d="M244.06,970.87a4,4,0,1,0,4-4,4,4,0,0,0-4,4Z"/><path class="cls-3" d="M244.06,843.31a4,4,0,1,0,4-4A4,4,0,0,0,244.06,843.31Z"/><path class="cls-3" d="M250.87,846.14h51v51h-51Z"/><path class="cls-3" d="M321.73,846.14h51v51h-51Z"/><path class="cls-3" d="M371.62,843.31a4,4,0,0,0,7.94,0h0a4,4,0,0,0-7.94,0Z"/><path class="cls-3" d="M513.35,970.87a4,4,0,1,0,4-4,4,4,0,0,0-4,4Z"/><path class="cls-3" d="M514.49,968h-51V917h51Z"/><path class="cls-3" d="M443.62,968h-51V917h51Z"/><path class="cls-3" d="M385.8,970.87a4,4,0,1,0,7.93,0h0a4,4,0,1,0-7.93,0Z"/><path class="cls-3" d="M385.8,843.31a4,4,0,1,0,7.93,0h0a4,4,0,1,0-7.93,0Z"/><path class="cls-3" d="M392.6,846.14h51v51h-51Z"/><path class="cls-3" d="M463.46,846.14h51v51h-51Z"/><path class="cls-3" d="M513.35,843.31a4,4,0,1,0,4-4A4,4,0,0,0,513.35,843.31Z"/></svg>