<?xml version="1.0" encoding="utf-8"?>
<!-- Generator: Fusion 360, Shaper Origin Export Add-In, Version 1.8.0  -->
<svg xmlns="http://www.w3.org/2000/svg" xmlns:xlink="http://www.w3.org/1999/xlink" xmlns:shaper="http://www.shapertools.com/namespaces/shaper" shaper:fusionaddin="version:1.8.0" width="20cm" height="15cm" version="1.1" x="0cm" y="0cm" viewBox="0 0 20 15" enable-background="new 0 0 20 15" xml:space="preserve"><path d="M10,-7.5 L10,7.5 -10,7.5 -10,-7.5 10,-7.5z" transform="matrix(1,0,0,-1,10,7.5)" fill="rgb(0,0,0)" stroke-linecap="round" stroke-linejoin="round" /><path d="M4.61,7.25 a0.14,0.14 0 1,1 0.28,0 a0.14,0.14 0 1,1 -0.28,0z" transform="matrix(1,0,0,-1,10,7.5)" fill="rgb(255,255,255)" stroke="rgb(0,0,0)" stroke-width="0.0010cm" stroke-linecap="round" stroke-linejoin="round" /><path d="M2.85,7.1500001 L4.65,7.1500001 4.65,5.3500001 2.85,5.3500001 2.85,7.1500001z" transform="matrix(1,0,0,-1,10,7.5)" fill="rgb(255,255,255)" stroke="rgb(0,0,0)" stroke-width="0.0010cm" stroke-linecap="round" stroke-linejoin="round" /><path d="M0.35,7.1500001 L2.15,7.1500001 2.15,5.3500001 0.35,5.3500001 0.35,7.1500001z" transform="matrix(1,0,0,-1,10,7.5)" fill="rgb(255,255,255)" stroke="rgb(0,0,0)" stroke-width="0.0010cm" stroke-linecap="round" stroke-linejoin="round" /><path d="M0.11,7.25 a0.14,0.14 0 1,1 0.28,0 a0.14,0.14 0 1,1 -0.28,0z" transform="matrix(1,0,0,-1,10,7.5)" fill="rgb(255,255,255)" stroke="rgb(0,0,0)" stroke-width="0.0010cm" stroke-linecap="round" stroke-linejoin="round" /><path d="M0.11,2.75 a0.14,0.14 0 1,1 0.28,0 a0.14,0.14 0 1,1 -0.28,0z" transform="matrix(1,0,0,-1,10,7.5)" fill="rgb(255,255,255)" stroke="rgb(0,0,0)" stroke-width="0.0010cm" stroke-linecap="round" stroke-linejoin="round" /><path d="M2.15,2.8499999 L0.35,2.8499999 0.35,4.6499999 2.15,4.6499999 2.15,2.8499999z" transform="matrix(1,0,0,-1,10,7.5)" fill="rgb(255,255,255)" stroke="rgb(0,0,0)" stroke-width="0.0010cm" stroke-linecap="round" stroke-linejoin="round" /><path d="M4.65,2.8499999 L2.85,2.8499999 2.85,4.6499999 4.65,4.6499999 4.65,2.8499999z" transform="matrix(1,0,0,-1,10,7.5)" fill="rgb(255,255,255)" stroke="rgb(0,0,0)" stroke-width="0.0010cm" stroke-linecap="round" stroke-linejoin="round" /><path d="M4.61,2.75 a0.14,0.14 0 1,1 0.28,0 a0.14,0.14 0 1,1 -0.28,0z" transform="matrix(1,0,0,-1,10,7.5)" fill="rgb(255,255,255)" stroke="rgb(0,0,0)" stroke-width="0.0010cm" stroke-linecap="round" stroke-linejoin="round" /><path d="M9.61,-2.75 a0.14,0.14 0 1,1 0.28,0 a0.14,0.14 0 1,1 -0.28,0z" transform="matrix(1,0,0,-1,10,7.5)" fill="rgb(255,255,255)" stroke="rgb(0,0,0)" stroke-width="0.0010cm" stroke-linecap="round" stroke-linejoin="round" /><path d="M7.85,-2.8499999 L9.65,-2.8499999 9.65,-4.6499999 7.85,-4.6499999 7.85,-2.8499999z" transform="matrix(1,0,0,-1,10,7.5)" fill="rgb(255,255,255)" stroke="rgb(0,0,0)" stroke-width="0.0010cm" stroke-linecap="round" stroke-linejoin="round" /><path d="M5.35,-2.8499999 L7.15,-2.8499999 7.15,-4.6499999 5.35,-4.6499999 5.35,-2.8499999z" transform="matrix(1,0,0,-1,10,7.5)" fill="rgb(255,255,255)" stroke="rgb(0,0,0)" stroke-width="0.0010cm" stroke-linecap="round" stroke-linejoin="round" /><path d="M5.11,-2.75 a0.14,0.14 0 1,1 0.28,0 a0.14,0.14 0 1,1 -0.28,0z" transform="matrix(1,0,0,-1,10,7.5)" fill="rgb(255,255,255)" stroke="rgb(0,0,0)" stroke-width="0.0010cm" stroke-linecap="round" stroke-linejoin="round" /><path d="M5.11,-7.25 a0.14,0.14 0 1,1 0.28,0 a0.14,0.14 0 1,1 -0.28,0z" transform="matrix(1,0,0,-1,10,7.5)" fill="rgb(255,255,255)" stroke="rgb(0,0,0)" stroke-width="0.0010cm" stroke-linecap="round" stroke-linejoin="round" /><path d="M7.15,-7.1500001 L5.35,-7.1500001 5.35,-5.3500001 7.15,-5.3500001 7.15,-7.1500001z" transform="matrix(1,0,0,-1,10,7.5)" fill="rgb(255,255,255)" stroke="rgb(0,0,0)" stroke-width="0.0010cm" stroke-linecap="round" stroke-linejoin="round" /><path d="M9.65,-7.1500001 L7.85,-7.1500001 7.85,-5.3500001 9.65,-5.3500001 9.65,-7.1500001z" transform="matrix(1,0,0,-1,10,7.5)" fill="rgb(255,255,255)" stroke="rgb(0,0,0)" stroke-width="0.0010cm" stroke-linecap="round" stroke-linejoin="round" /><path d="M9.61,-7.25 a0.14,0.14 0 1,1 0.28,0 a0.14,0.14 0 1,1 -0.28,0z" transform="matrix(1,0,0,-1,10,7.5)" fill="rgb(255,255,255)" stroke="rgb(0,0,0)" stroke-width="0.0010cm" stroke-linecap="round" stroke-linejoin="round" /><path d="M9.61,2.25 a0.14,0.14 0 1,1 0.28,0 a0.14,0.14 0 1,1 -0.28,0z" transform="matrix(1,0,0,-1,10,7.5)" fill="rgb(255,255,255)" stroke="rgb(0,0,0)" stroke-width="0.0010cm" stroke-linecap="round" stroke-linejoin="round" /><path d="M7.85,2.1500001 L9.65,2.1500001 9.65,0.3500001 7.85,0.3500001 7.85,2.1500001z" transform="matrix(1,0,0,-1,10,7.5)" fill="rgb(255,255,255)" stroke="rgb(0,0,0)" stroke-width="0.0010cm" stroke-linecap="round" stroke-linejoin="round" /><path d="M5.35,2.1500001 L7.15,2.1500001 7.15,0.3500001 5.35,0.3500001 5.35,2.1500001z" transform="matrix(1,0,0,-1,10,7.5)" fill="rgb(255,255,255)" stroke="rgb(0,0,0)" stroke-width="0.0010cm" stroke-linecap="round" stroke-linejoin="round" /><path d="M5.11,2.25 a0.14,0.14 0 1,1 0.28,0 a0.14,0.14 0 1,1 -0.28,0z" transform="matrix(1,0,0,-1,10,7.5)" fill="rgb(255,255,255)" stroke="rgb(0,0,0)" stroke-width="0.0010cm" stroke-linecap="round" stroke-linejoin="round" /><path d="M5.11,-2.25 a0.14,0.14 0 1,1 0.28,0 a0.14,0.14 0 1,1 -0.28,0z" transform="matrix(1,0,0,-1,10,7.5)" fill="rgb(255,255,255)" stroke="rgb(0,0,0)" stroke-width="0.0010cm" stroke-linecap="round" stroke-linejoin="round" /><path d="M7.15,-2.1500001 L5.35,-2.1500001 5.35,-0.3500001 7.15,-0.3500001 7.15,-2.1500001z" transform="matrix(1,0,0,-1,10,7.5)" fill="rgb(255,255,255)" stroke="rgb(0,0,0)" stroke-width="0.0010cm" stroke-linecap="round" stroke-linejoin="round" /><path d="M9.65,-2.1500001 L7.85,-2.1500001 7.85,-0.3500001 9.65,-0.3500001 9.65,-2.1500001z" transform="matrix(1,0,0,-1,10,7.5)" fill="rgb(255,255,255)" stroke="rgb(0,0,0)" stroke-width="0.0010cm" stroke-linecap="round" stroke-linejoin="round" /><path d="M9.61,-2.25 a0.14,0.14 0 1,1 0.28,0 a0.14,0.14 0 1,1 -0.28,0z" transform="matrix(1,0,0,-1,10,7.5)" fill="rgb(255,255,255)" stroke="rgb(0,0,0)" stroke-width="0.0010cm" stroke-linecap="round" stroke-linejoin="round" /><path d="M9.61,2.75 a0.14,0.14 0 1,1 0.28,0 a0.14,0.14 0 1,1 -0.28,0z" transform="matrix(1,0,0,-1,10,7.5)" fill="rgb(255,255,255)" stroke="rgb(0,0,0)" stroke-width="0.0010cm" stroke-linecap="round" stroke-linejoin="round" /><path d="M9.65,2.8499999 L7.85,2.8499999 7.85,4.6499999 9.65,4.6499999 9.65,2.8499999z" transform="matrix(1,0,0,-1,10,7.5)" fill="rgb(255,255,255)" stroke="rgb(0,0,0)" stroke-width="0.0010cm" stroke-linecap="round" stroke-linejoin="round" /><path d="M7.15,2.8499999 L5.35,2.8499999 5.35,4.6499999 7.15,4.6499999 7.15,2.8499999z" transform="matrix(1,0,0,-1,10,7.5)" fill="rgb(255,255,255)" stroke="rgb(0,0,0)" stroke-width="0.0010cm" stroke-linecap="round" stroke-linejoin="round" /><path d="M5.11,2.75 a0.14,0.14 0 1,1 0.28,0 a0.14,0.14 0 1,1 -0.28,0z" transform="matrix(1,0,0,-1,10,7.5)" fill="rgb(255,255,255)" stroke="rgb(0,0,0)" stroke-width="0.0010cm" stroke-linecap="round" stroke-linejoin="round" /><path d="M5.11,7.25 a0.14,0.14 0 1,1 0.28,0 a0.14,0.14 0 1,1 -0.28,0z" transform="matrix(1,0,0,-1,10,7.5)" fill="rgb(255,255,255)" stroke="rgb(0,0,0)" stroke-width="0.0010cm" stroke-linecap="round" stroke-linejoin="round" /><path d="M5.35,7.1500001 L7.15,7.1500001 7.15,5.3500001 5.35,5.3500001 5.35,7.1500001z" transform="matrix(1,0,0,-1,10,7.5)" fill="rgb(255,255,255)" stroke="rgb(0,0,0)" stroke-width="0.0010cm" stroke-linecap="round" stroke-linejoin="round" /><path d="M7.85,7.1500001 L9.65,7.1500001 9.65,5.3500001 7.85,5.3500001 7.85,7.1500001z" transform="matrix(1,0,0,-1,10,7.5)" fill="rgb(255,255,255)" stroke="rgb(0,0,0)" stroke-width="0.0010cm" stroke-linecap="round" stroke-linejoin="round" /><path d="M9.61,7.25 a0.14,0.14 0 1,1 0.28,0 a0.14,0.14 0 1,1 -0.28,0z" transform="matrix(1,0,0,-1,10,7.5)" fill="rgb(255,255,255)" stroke="rgb(0,0,0)" stroke-width="0.0010cm" stroke-linecap="round" stroke-linejoin="round" /><path d="M4.61,-2.25 a0.14,0.14 0 1,1 0.28,0 a0.14,0.14 0 1,1 -0.28,0z" transform="matrix(1,0,0,-1,10,7.5)" fill="rgb(255,255,255)" stroke="rgb(0,0,0)" stroke-width="0.0010cm" stroke-linecap="round" stroke-linejoin="round" /><path d="M4.65,-2.1500001 L2.85,-2.1500001 2.85,-0.3500001 4.65,-0.3500001 4.65,-2.1500001z" transform="matrix(1,0,0,-1,10,7.5)" fill="rgb(255,255,255)" stroke="rgb(0,0,0)" stroke-width="0.0010cm" stroke-linecap="round" stroke-linejoin="round" /><path d="M2.15,-2.1500001 L0.35,-2.1500001 0.35,-0.3500001 2.15,-0.3500001 2.15,-2.1500001z" transform="matrix(1,0,0,-1,10,7.5)" fill="rgb(255,255,255)" stroke="rgb(0,0,0)" stroke-width="0.0010cm" stroke-linecap="round" stroke-linejoin="round" /><path d="M0.11,-2.25 a0.14,0.14 0 1,1 0.28,0 a0.14,0.14 0 1,1 -0.28,0z" transform="matrix(1,0,0,-1,10,7.5)" fill="rgb(255,255,255)" stroke="rgb(0,0,0)" stroke-width="0.0010cm" stroke-linecap="round" stroke-linejoin="round" /><path d="M0.11,2.25 a0.14,0.14 0 1,1 0.28,0 a0.14,0.14 0 1,1 -0.28,0z" transform="matrix(1,0,0,-1,10,7.5)" fill="rgb(255,255,255)" stroke="rgb(0,0,0)" stroke-width="0.0010cm" stroke-linecap="round" stroke-linejoin="round" /><path d="M0.35,2.1500001 L2.15,2.1500001 2.15,0.3500001 0.35,0.3500001 0.35,2.1500001z" transform="matrix(1,0,0,-1,10,7.5)" fill="rgb(255,255,255)" stroke="rgb(0,0,0)" stroke-width="0.0010cm" stroke-linecap="round" stroke-linejoin="round" /><path d="M2.85,2.1500001 L4.65,2.1500001 4.65,0.3500001 2.85,0.3500001 2.85,2.1500001z" transform="matrix(1,0,0,-1,10,7.5)" fill="rgb(255,255,255)" stroke="rgb(0,0,0)" stroke-width="0.0010cm" stroke-linecap="round" stroke-linejoin="round" /><path d="M4.61,2.25 a0.14,0.14 0 1,1 0.28,0 a0.14,0.14 0 1,1 -0.28,0z" transform="matrix(1,0,0,-1,10,7.5)" fill="rgb(255,255,255)" stroke="rgb(0,0,0)" stroke-width="0.0010cm" stroke-linecap="round" stroke-linejoin="round" /><path d="M-0.39,7.25 a0.14,0.14 0 1,1 0.28,0 a0.14,0.14 0 1,1 -0.28,0z" transform="matrix(1,0,0,-1,10,7.5)" fill="rgb(255,255,255)" stroke="rgb(0,0,0)" stroke-width="0.0010cm" stroke-linecap="round" stroke-linejoin="round" /><path d="M-2.15,7.1500001 L-0.35,7.1500001 -0.35,5.3500001 -2.15,5.3500001 -2.15,7.1500001z" transform="matrix(1,0,0,-1,10,7.5)" fill="rgb(255,255,255)" stroke="rgb(0,0,0)" stroke-width="0.0010cm" stroke-linecap="round" stroke-linejoin="round" /><path d="M-4.65,7.1500001 L-2.85,7.1500001 -2.85,5.3500001 -4.65,5.3500001 -4.65,7.1500001z" transform="matrix(1,0,0,-1,10,7.5)" fill="rgb(255,255,255)" stroke="rgb(0,0,0)" stroke-width="0.0010cm" stroke-linecap="round" stroke-linejoin="round" /><path d="M-4.89,7.25 a0.14,0.14 0 1,1 0.28,0 a0.14,0.14 0 1,1 -0.28,0z" transform="matrix(1,0,0,-1,10,7.5)" fill="rgb(255,255,255)" stroke="rgb(0,0,0)" stroke-width="0.0010cm" stroke-linecap="round" stroke-linejoin="round" /><path d="M-4.89,2.75 a0.14,0.14 0 1,1 0.28,0 a0.14,0.14 0 1,1 -0.28,0z" transform="matrix(1,0,0,-1,10,7.5)" fill="rgb(255,255,255)" stroke="rgb(0,0,0)" stroke-width="0.0010cm" stroke-linecap="round" stroke-linejoin="round" /><path d="M-2.85,2.8499999 L-4.65,2.8499999 -4.65,4.6499999 -2.85,4.6499999 -2.85,2.8499999z" transform="matrix(1,0,0,-1,10,7.5)" fill="rgb(255,255,255)" stroke="rgb(0,0,0)" stroke-width="0.0010cm" stroke-linecap="round" stroke-linejoin="round" /><path d="M-0.35,2.8499999 L-2.15,2.8499999 -2.15,4.6499999 -0.35,4.6499999 -0.35,2.8499999z" transform="matrix(1,0,0,-1,10,7.5)" fill="rgb(255,255,255)" stroke="rgb(0,0,0)" stroke-width="0.0010cm" stroke-linecap="round" stroke-linejoin="round" /><path d="M-0.39,2.75 a0.14,0.14 0 1,1 0.28,0 a0.14,0.14 0 1,1 -0.28,0z" transform="matrix(1,0,0,-1,10,7.5)" fill="rgb(255,255,255)" stroke="rgb(0,0,0)" stroke-width="0.0010cm" stroke-linecap="round" stroke-linejoin="round" /><path d="M-5.39,-2.75 a0.14,0.14 0 1,1 0.28,0 a0.14,0.14 0 1,1 -0.28,0z" transform="matrix(1,0,0,-1,10,7.5)" fill="rgb(255,255,255)" stroke="rgb(0,0,0)" stroke-width="0.0010cm" stroke-linecap="round" stroke-linejoin="round" /><path d="M-7.15,-2.8499999 L-5.35,-2.8499999 -5.35,-4.6499999 -7.15,-4.6499999 -7.15,-2.8499999z" transform="matrix(1,0,0,-1,10,7.5)" fill="rgb(255,255,255)" stroke="rgb(0,0,0)" stroke-width="0.0010cm" stroke-linecap="round" stroke-linejoin="round" /><path d="M-9.65,-2.8499999 L-7.85,-2.8499999 -7.85,-4.6499999 -9.65,-4.6499999 -9.65,-2.8499999z" transform="matrix(1,0,0,-1,10,7.5)" fill="rgb(255,255,255)" stroke="rgb(0,0,0)" stroke-width="0.0010cm" stroke-linecap="round" stroke-linejoin="round" /><path d="M-9.89,-2.75 a0.14,0.14 0 1,1 0.28,0 a0.14,0.14 0 1,1 -0.28,0z" transform="matrix(1,0,0,-1,10,7.5)" fill="rgb(255,255,255)" stroke="rgb(0,0,0)" stroke-width="0.0010cm" stroke-linecap="round" stroke-linejoin="round" /><path d="M-9.89,-7.25 a0.14,0.14 0 1,1 0.28,0 a0.14,0.14 0 1,1 -0.28,0z" transform="matrix(1,0,0,-1,10,7.5)" fill="rgb(255,255,255)" stroke="rgb(0,0,0)" stroke-width="0.0010cm" stroke-linecap="round" stroke-linejoin="round" /><path d="M-7.85,-7.1500001 L-9.65,-7.1500001 -9.65,-5.3500001 -7.85,-5.3500001 -7.85,-7.1500001z" transform="matrix(1,0,0,-1,10,7.5)" fill="rgb(255,255,255)" stroke="rgb(0,0,0)" stroke-width="0.0010cm" stroke-linecap="round" stroke-linejoin="round" /><path d="M-5.35,-7.1500001 L-7.15,-7.1500001 -7.15,-5.3500001 -5.35,-5.3500001 -5.35,-7.1500001z" transform="matrix(1,0,0,-1,10,7.5)" fill="rgb(255,255,255)" stroke="rgb(0,0,0)" stroke-width="0.0010cm" stroke-linecap="round" stroke-linejoin="round" /><path d="M-5.39,-7.25 a0.14,0.14 0 1,1 0.28,0 a0.14,0.14 0 1,1 -0.28,0z" transform="matrix(1,0,0,-1,10,7.5)" fill="rgb(255,255,255)" stroke="rgb(0,0,0)" stroke-width="0.0010cm" stroke-linecap="round" stroke-linejoin="round" /><path d="M-5.39,7.25 a0.14,0.14 0 1,1 0.28,0 a0.14,0.14 0 1,1 -0.28,0z" transform="matrix(1,0,0,-1,10,7.5)" fill="rgb(255,255,255)" stroke="rgb(0,0,0)" stroke-width="0.0010cm" stroke-linecap="round" stroke-linejoin="round" /><path d="M-7.15,7.1500001 L-5.35,7.1500001 -5.35,5.3500001 -7.15,5.3500001 -7.15,7.1500001z" transform="matrix(1,0,0,-1,10,7.5)" fill="rgb(255,255,255)" stroke="rgb(0,0,0)" stroke-width="0.0010cm" stroke-linecap="round" stroke-linejoin="round" /><path d="M-9.65,7.1500001 L-7.85,7.1500001 -7.85,5.3500001 -9.65,5.3500001 -9.65,7.1500001z" transform="matrix(1,0,0,-1,10,7.5)" fill="rgb(255,255,255)" stroke="rgb(0,0,0)" stroke-width="0.0010cm" stroke-linecap="round" stroke-linejoin="round" /><path d="M-9.89,7.25 a0.14,0.14 0 1,1 0.28,0 a0.14,0.14 0 1,1 -0.28,0z" transform="matrix(1,0,0,-1,10,7.5)" fill="rgb(255,255,255)" stroke="rgb(0,0,0)" stroke-width="0.0010cm" stroke-linecap="round" stroke-linejoin="round" /><path d="M-9.89,2.75 a0.14,0.14 0 1,1 0.28,0 a0.14,0.14 0 1,1 -0.28,0z" transform="matrix(1,0,0,-1,10,7.5)" fill="rgb(255,255,255)" stroke="rgb(0,0,0)" stroke-width="0.0010cm" stroke-linecap="round" stroke-linejoin="round" /><path d="M-7.85,2.8499999 L-9.65,2.8499999 -9.65,4.6499999 -7.85,4.6499999 -7.85,2.8499999z" transform="matrix(1,0,0,-1,10,7.5)" fill="rgb(255,255,255)" stroke="rgb(0,0,0)" stroke-width="0.0010cm" stroke-linecap="round" stroke-linejoin="round" /><path d="M-5.35,2.8499999 L-7.15,2.8499999 -7.15,4.6499999 -5.35,4.6499999 -5.35,2.8499999z" transform="matrix(1,0,0,-1,10,7.5)" fill="rgb(255,255,255)" stroke="rgb(0,0,0)" stroke-width="0.0010cm" stroke-linecap="round" stroke-linejoin="round" /><path d="M-5.39,2.75 a0.14,0.14 0 1,1 0.28,0 a0.14,0.14 0 1,1 -0.28,0z" transform="matrix(1,0,0,-1,10,7.5)" fill="rgb(255,255,255)" stroke="rgb(0,0,0)" stroke-width="0.0010cm" stroke-linecap="round" stroke-linejoin="round" /><path d="M-5.39,2.25 a0.14,0.14 0 1,1 0.28,0 a0.14,0.14 0 1,1 -0.28,0z" transform="matrix(1,0,0,-1,10,7.5)" fill="rgb(255,255,255)" stroke="rgb(0,0,0)" stroke-width="0.0010cm" stroke-linecap="round" stroke-linejoin="round" /><path d="M-7.15,2.1500001 L-5.35,2.1500001 -5.35,0.3500001 -7.15,0.3500001 -7.15,2.1500001z" transform="matrix(1,0,0,-1,10,7.5)" fill="rgb(255,255,255)" stroke="rgb(0,0,0)" stroke-width="0.0010cm" stroke-linecap="round" stroke-linejoin="round" /><path d="M-9.65,2.1500001 L-7.85,2.1500001 -7.85,0.3500001 -9.65,0.3500001 -9.65,2.1500001z" transform="matrix(1,0,0,-1,10,7.5)" fill="rgb(255,255,255)" stroke="rgb(0,0,0)" stroke-width="0.0010cm" stroke-linecap="round" stroke-linejoin="round" /><path d="M-9.89,2.25 a0.14,0.14 0 1,1 0.28,0 a0.14,0.14 0 1,1 -0.28,0z" transform="matrix(1,0,0,-1,10,7.5)" fill="rgb(255,255,255)" stroke="rgb(0,0,0)" stroke-width="0.0010cm" stroke-linecap="round" stroke-linejoin="round" /><path d="M-9.89,-2.25 a0.14,0.14 0 1,1 0.28,0 a0.14,0.14 0 1,1 -0.28,0z" transform="matrix(1,0,0,-1,10,7.5)" fill="rgb(255,255,255)" stroke="rgb(0,0,0)" stroke-width="0.0010cm" stroke-linecap="round" stroke-linejoin="round" /><path d="M-7.85,-2.1500001 L-9.65,-2.1500001 -9.65,-0.3500001 -7.85,-0.3500001 -7.85,-2.1500001z" transform="matrix(1,0,0,-1,10,7.5)" fill="rgb(255,255,255)" stroke="rgb(0,0,0)" stroke-width="0.0010cm" stroke-linecap="round" stroke-linejoin="round" /><path d="M-5.35,-2.1500001 L-7.15,-2.1500001 -7.15,-0.3500001 -5.35,-0.3500001 -5.35,-2.1500001z" transform="matrix(1,0,0,-1,10,7.5)" fill="rgb(255,255,255)" stroke="rgb(0,0,0)" stroke-width="0.0010cm" stroke-linecap="round" stroke-linejoin="round" /><path d="M-5.39,-2.25 a0.14,0.14 0 1,1 0.28,0 a0.14,0.14 0 1,1 -0.28,0z" transform="matrix(1,0,0,-1,10,7.5)" fill="rgb(255,255,255)" stroke="rgb(0,0,0)" stroke-width="0.0010cm" stroke-linecap="round" stroke-linejoin="round" /><path d="M-0.39,-2.25 a0.14,0.14 0 1,1 0.28,0 a0.14,0.14 0 1,1 -0.28,0z" transform="matrix(1,0,0,-1,10,7.5)" fill="rgb(255,255,255)" stroke="rgb(0,0,0)" stroke-width="0.0010cm" stroke-linecap="round" stroke-linejoin="round" /><path d="M-0.35,-2.1500001 L-2.15,-2.1500001 -2.15,-0.3500001 -0.35,-0.3500001 -0.35,-2.1500001z" transform="matrix(1,0,0,-1,10,7.5)" fill="rgb(255,255,255)" stroke="rgb(0,0,0)" stroke-width="0.0010cm" stroke-linecap="round" stroke-linejoin="round" /><path d="M-2.85,-2.1500001 L-4.65,-2.1500001 -4.65,-0.3500001 -2.85,-0.3500001 -2.85,-2.1500001z" transform="matrix(1,0,0,-1,10,7.5)" fill="rgb(255,255,255)" stroke="rgb(0,0,0)" stroke-width="0.0010cm" stroke-linecap="round" stroke-linejoin="round" /><path d="M-4.89,-2.25 a0.14,0.14 0 1,1 0.28,0 a0.14,0.14 0 1,1 -0.28,0z" transform="matrix(1,0,0,-1,10,7.5)" fill="rgb(255,255,255)" stroke="rgb(0,0,0)" stroke-width="0.0010cm" stroke-linecap="round" stroke-linejoin="round" /><path d="M-4.89,2.25 a0.14,0.14 0 1,1 0.28,0 a0.14,0.14 0 1,1 -0.28,0z" transform="matrix(1,0,0,-1,10,7.5)" fill="rgb(255,255,255)" stroke="rgb(0,0,0)" stroke-width="0.0010cm" stroke-linecap="round" stroke-linejoin="round" /><path d="M-4.65,2.1500001 L-2.85,2.1500001 -2.85,0.3500001 -4.65,0.3500001 -4.65,2.1500001z" transform="matrix(1,0,0,-1,10,7.5)" fill="rgb(255,255,255)" stroke="rgb(0,0,0)" stroke-width="0.0010cm" stroke-linecap="round" stroke-linejoin="round" /><path d="M-2.15,2.1500001 L-0.35,2.1500001 -0.35,0.3500001 -2.15,0.3500001 -2.15,2.1500001z" transform="matrix(1,0,0,-1,10,7.5)" fill="rgb(255,255,255)" stroke="rgb(0,0,0)" stroke-width="0.0010cm" stroke-linecap="round" stroke-linejoin="round" /><path d="M-0.39,2.25 a0.14,0.14 0 1,1 0.28,0 a0.14,0.14 0 1,1 -0.28,0z" transform="matrix(1,0,0,-1,10,7.5)" fill="rgb(255,255,255)" stroke="rgb(0,0,0)" stroke-width="0.0010cm" stroke-linecap="round" stroke-linejoin="round" /><path d="M-0.39,-7.25 a0.14,0.14 0 1,1 0.28,0 a0.14,0.14 0 1,1 -0.28,0z" transform="matrix(1,0,0,-1,10,7.5)" fill="rgb(255,255,255)" stroke="rgb(0,0,0)" stroke-width="0.0010cm" stroke-linecap="round" stroke-linejoin="round" /><path d="M-0.35,-7.1500001 L-2.15,-7.1500001 -2.15,-5.3500001 -0.35,-5.3500001 -0.35,-7.1500001z" transform="matrix(1,0,0,-1,10,7.5)" fill="rgb(255,255,255)" stroke="rgb(0,0,0)" stroke-width="0.0010cm" stroke-linecap="round" stroke-linejoin="round" /><path d="M-2.85,-7.1500001 L-4.65,-7.1500001 -4.65,-5.3500001 -2.85,-5.3500001 -2.85,-7.1500001z" transform="matrix(1,0,0,-1,10,7.5)" fill="rgb(255,255,255)" stroke="rgb(0,0,0)" stroke-width="0.0010cm" stroke-linecap="round" stroke-linejoin="round" /><path d="M-4.89,-7.25 a0.14,0.14 0 1,1 0.28,0 a0.14,0.14 0 1,1 -0.28,0z" transform="matrix(1,0,0,-1,10,7.5)" fill="rgb(255,255,255)" stroke="rgb(0,0,0)" stroke-width="0.0010cm" stroke-linecap="round" stroke-linejoin="round" /><path d="M-4.89,-2.75 a0.14,0.14 0 1,1 0.28,0 a0.14,0.14 0 1,1 -0.28,0z" transform="matrix(1,0,0,-1,10,7.5)" fill="rgb(255,255,255)" stroke="rgb(0,0,0)" stroke-width="0.0010cm" stroke-linecap="round" stroke-linejoin="round" /><path d="M-4.65,-2.8499999 L-2.85,-2.8499999 -2.85,-4.6499999 -4.65,-4.6499999 -4.65,-2.8499999z" transform="matrix(1,0,0,-1,10,7.5)" fill="rgb(255,255,255)" stroke="rgb(0,0,0)" stroke-width="0.0010cm" stroke-linecap="round" stroke-linejoin="round" /><path d="M-2.15,-2.8499999 L-0.35,-2.8499999 -0.35,-4.6499999 -2.15,-4.6499999 -2.15,-2.8499999z" transform="matrix(1,0,0,-1,10,7.5)" fill="rgb(255,255,255)" stroke="rgb(0,0,0)" stroke-width="0.0010cm" stroke-linecap="round" stroke-linejoin="round" /><path d="M-0.39,-2.75 a0.14,0.14 0 1,1 0.28,0 a0.14,0.14 0 1,1 -0.28,0z" transform="matrix(1,0,0,-1,10,7.5)" fill="rgb(255,255,255)" stroke="rgb(0,0,0)" stroke-width="0.0010cm" stroke-linecap="round" stroke-linejoin="round" /><path d="M4.61,-7.25 a0.14,0.14 0 1,1 0.28,0 a0.14,0.14 0 1,1 -0.28,0z" transform="matrix(1,0,0,-1,10,7.5)" fill="rgb(255,255,255)" stroke="rgb(0,0,0)" stroke-width="0.0010cm" stroke-linecap="round" stroke-linejoin="round" /><path d="M4.65,-7.1500001 L2.85,-7.1500001 2.85,-5.3500001 4.65,-5.3500001 4.65,-7.1500001z" transform="matrix(1,0,0,-1,10,7.5)" fill="rgb(255,255,255)" stroke="rgb(0,0,0)" stroke-width="0.0010cm" stroke-linecap="round" stroke-linejoin="round" /><path d="M2.15,-7.1500001 L0.35,-7.1500001 0.35,-5.3500001 2.15,-5.3500001 2.15,-7.1500001z" transform="matrix(1,0,0,-1,10,7.5)" fill="rgb(255,255,255)" stroke="rgb(0,0,0)" stroke-width="0.0010cm" stroke-linecap="round" stroke-linejoin="round" /><path d="M0.11,-7.25 a0.14,0.14 0 1,1 0.28,0 a0.14,0.14 0 1,1 -0.28,0z" transform="matrix(1,0,0,-1,10,7.5)" fill="rgb(255,255,255)" stroke="rgb(0,0,0)" stroke-width="0.0010cm" stroke-linecap="round" stroke-linejoin="round" /><path d="M0.11,-2.75 a0.14,0.14 0 1,1 0.28,0 a0.14,0.14 0 1,1 -0.28,0z" transform="matrix(1,0,0,-1,10,7.5)" fill="rgb(255,255,255)" stroke="rgb(0,0,0)" stroke-width="0.0010cm" stroke-linecap="round" stroke-linejoin="round" /><path d="M0.35,-2.8499999 L2.15,-2.8499999 2.15,-4.6499999 0.35,-4.6499999 0.35,-2.8499999z" transform="matrix(1,0,0,-1,10,7.5)" fill="rgb(255,255,255)" stroke="rgb(0,0,0)" stroke-width="0.0010cm" stroke-linecap="round" stroke-linejoin="round" /><path d="M2.85,-2.8499999 L4.65,-2.8499999 4.65,-4.6499999 2.85,-4.6499999 2.85,-2.8499999z" transform="matrix(1,0,0,-1,10,7.5)" fill="rgb(255,255,255)" stroke="rgb(0,0,0)" stroke-width="0.0010cm" stroke-linecap="round" stroke-linejoin="round" /><path d="M4.61,-2.75 a0.14,0.14 0 1,1 0.28,0 a0.14,0.14 0 1,1 -0.28,0z" transform="matrix(1,0,0,-1,10,7.5)" fill="rgb(255,255,255)" stroke="rgb(0,0,0)" stroke-width="0.0010cm" stroke-linecap="round" stroke-linejoin="round" /></svg>