<?xml version="1.0" encoding="utf-8"?>
<!-- Generator: Fusion 360, Shaper Origin Export Add-In, Version 1.8.0  -->
<svg xmlns="http://www.w3.org/2000/svg" xmlns:xlink="http://www.w3.org/1999/xlink" xmlns:shaper="http://www.shapertools.com/namespaces/shaper" shaper:fusionaddin="version:1.8.0" width="36.2cm" height="28cm" version="1.1" x="0cm" y="0cm" viewBox="0 0 36.2 28" enable-background="new 0 0 36.2 28" xml:space="preserve"><path d="M0,0 L36.2,-0 36.2,28 0,28 0,0z" transform="matrix(1,0,0,-1,-0,28)" stroke="rgb(100,100,100)" stroke-width="0.0010cm" stroke-linecap="round" stroke-linejoin="round" fill="none" /><path d="M1.7897815,2.7024393 a0.4,0.4 0 1,1 0.8,0 a0.4,0.4 0 1,1 -0.8,0z" transform="matrix(1,0,0,-1,-0,28)" stroke="rgb(100,100,100)" stroke-width="0.0010cm" stroke-linecap="round" stroke-linejoin="round" fill="none" /><path d="M4.4000001,3.3 L6.2000001,3.3 6.2000001,1.5 4.4000001,1.5 4.4000001,3.3z" transform="matrix(1,0,0,-1,-0,28)" stroke="rgb(100,100,100)" stroke-width="0.0010cm" stroke-linecap="round" stroke-linejoin="round" fill="none" /><path d="M8.7000001,3.3 L8.7000001,1.5 6.9000001,1.5 6.9000001,3.3 8.7000001,3.3z" transform="matrix(1,0,0,-1,-0,28)" stroke="rgb(100,100,100)" stroke-width="0.0010cm" stroke-linecap="round" stroke-linejoin="round" fill="none" /><path d="M11.2000001,3.3 L11.2000001,1.5 9.4000001,1.5 9.4000001,3.3 11.2000001,3.3z" transform="matrix(1,0,0,-1,-0,28)" stroke="rgb(100,100,100)" stroke-width="0.0010cm" stroke-linecap="round" stroke-linejoin="round" fill="none" /><path d="M13.7000001,3.3 L13.7000001,1.5 11.9000001,1.5 11.9000001,3.3 13.7000001,3.3z" transform="matrix(1,0,0,-1,-0,28)" stroke="rgb(100,100,100)" stroke-width="0.0010cm" stroke-linecap="round" stroke-linejoin="round" fill="none" /><path d="M16.2000001,3.3 L16.2000001,1.5 14.4000001,1.5 14.4000001,3.3 16.2000001,3.3z" transform="matrix(1,0,0,-1,-0,28)" stroke="rgb(100,100,100)" stroke-width="0.0010cm" stroke-linecap="round" stroke-linejoin="round" fill="none" /><path d="M18.7000001,3.3 L18.7000001,1.5 16.9000001,1.5 16.9000001,3.3 18.7000001,3.3z" transform="matrix(1,0,0,-1,-0,28)" stroke="rgb(100,100,100)" stroke-width="0.0010cm" stroke-linecap="round" stroke-linejoin="round" fill="none" /><path d="M20.6000001,2.4 a0.4,0.4 0 1,1 0.8,0 a0.4,0.4 0 1,1 -0.8,0z" transform="matrix(1,0,0,-1,-0,28)" stroke="rgb(100,100,100)" stroke-width="0.0010cm" stroke-linecap="round" stroke-linejoin="round" fill="none" /><path d="M23.2000001,2.4 a0.4,0.4 0 1,1 0.8,0 a0.4,0.4 0 1,1 -0.8,0z" transform="matrix(1,0,0,-1,-0,28)" stroke="rgb(100,100,100)" stroke-width="0.0010cm" stroke-linecap="round" stroke-linejoin="round" fill="none" /><path d="M25.8000001,2.4 a0.4,0.4 0 1,1 0.8,0 a0.4,0.4 0 1,1 -0.8,0z" transform="matrix(1,0,0,-1,-0,28)" stroke="rgb(100,100,100)" stroke-width="0.0010cm" stroke-linecap="round" stroke-linejoin="round" fill="none" /><path d="M28.4000001,2.4 a0.4,0.4 0 1,1 0.8,0 a0.4,0.4 0 1,1 -0.8,0z" transform="matrix(1,0,0,-1,-0,28)" stroke="rgb(100,100,100)" stroke-width="0.0010cm" stroke-linecap="round" stroke-linejoin="round" fill="none" /><path d="M30.6000004,2.55 L34.3000004,2.55 34.3000004,2.25 30.6000004,2.25 30.6000004,2.55z" transform="matrix(1,0,0,-1,-0,28)" stroke="rgb(100,100,100)" stroke-width="0.0010cm" stroke-linecap="round" stroke-linejoin="round" fill="none" /><path d="M30.2000005,2.4 a0.15,0.15 0 1,1 0.3,0 a0.15,0.15 0 1,1 -0.3,0z" transform="matrix(1,0,0,-1,-0,28)" stroke="rgb(100,100,100)" stroke-width="0.0010cm" stroke-linecap="round" stroke-linejoin="round" fill="none" /><path d="M34.4000005,2.4 a0.15,0.15 0 1,1 0.3,0 a0.15,0.15 0 1,1 -0.3,0z" transform="matrix(1,0,0,-1,-0,28)" stroke="rgb(100,100,100)" stroke-width="0.0010cm" stroke-linecap="round" stroke-linejoin="round" fill="none" /><path d="M14.4000001,5.8 L16.2000001,5.8 16.2000001,4 14.4000001,4 14.4000001,5.8z" transform="matrix(1,0,0,-1,-0,28)" stroke="rgb(100,100,100)" stroke-width="0.0010cm" stroke-linecap="round" stroke-linejoin="round" fill="none" /><path d="M16.9000001,4 L16.9000001,5.8 18.7000001,5.8 18.7000001,4 16.9000001,4z" transform="matrix(1,0,0,-1,-0,28)" stroke="rgb(100,100,100)" stroke-width="0.0010cm" stroke-linecap="round" stroke-linejoin="round" fill="none" /><path d="M11.9000001,4 L11.9000001,5.8 13.7000001,5.8 13.7000001,4 11.9000001,4z" transform="matrix(1,0,0,-1,-0,28)" stroke="rgb(100,100,100)" stroke-width="0.0010cm" stroke-linecap="round" stroke-linejoin="round" fill="none" /><path d="M9.4000001,4 L9.4000001,5.8 11.2000001,5.8 11.2000001,4 9.4000001,4z" transform="matrix(1,0,0,-1,-0,28)" stroke="rgb(100,100,100)" stroke-width="0.0010cm" stroke-linecap="round" stroke-linejoin="round" fill="none" /><path d="M6.2000001,5.8 L6.2000001,4 4.4000001,4 4.4000001,5.8 6.2000001,5.8z" transform="matrix(1,0,0,-1,-0,28)" stroke="rgb(100,100,100)" stroke-width="0.0010cm" stroke-linecap="round" stroke-linejoin="round" fill="none" /><path d="M8.7000001,5.8 L8.7000001,4 6.9000001,4 6.9000001,5.8 8.7000001,5.8z" transform="matrix(1,0,0,-1,-0,28)" stroke="rgb(100,100,100)" stroke-width="0.0010cm" stroke-linecap="round" stroke-linejoin="round" fill="none" /><path d="M23.2000001,4.9 a0.4,0.4 0 1,1 0.8,0 a0.4,0.4 0 1,1 -0.8,0z" transform="matrix(1,0,0,-1,-0,28)" stroke="rgb(100,100,100)" stroke-width="0.0010cm" stroke-linecap="round" stroke-linejoin="round" fill="none" /><path d="M28.4000001,4.9 a0.4,0.4 0 1,1 0.8,0 a0.4,0.4 0 1,1 -0.8,0z" transform="matrix(1,0,0,-1,-0,28)" stroke="rgb(100,100,100)" stroke-width="0.0010cm" stroke-linecap="round" stroke-linejoin="round" fill="none" /><path d="M30.2000005,4.9 a0.15,0.15 0 1,1 0.3,0 a0.15,0.15 0 1,1 -0.3,0z" transform="matrix(1,0,0,-1,-0,28)" stroke="rgb(100,100,100)" stroke-width="0.0010cm" stroke-linecap="round" stroke-linejoin="round" fill="none" /><path d="M34.3000004,5.05 L34.3000004,4.75 30.6000004,4.75 30.6000004,5.05 34.3000004,5.05z" transform="matrix(1,0,0,-1,-0,28)" stroke="rgb(100,100,100)" stroke-width="0.0010cm" stroke-linecap="round" stroke-linejoin="round" fill="none" /><path d="M25.8000001,4.9 a0.4,0.4 0 1,1 0.8,0 a0.4,0.4 0 1,1 -0.8,0z" transform="matrix(1,0,0,-1,-0,28)" stroke="rgb(100,100,100)" stroke-width="0.0010cm" stroke-linecap="round" stroke-linejoin="round" fill="none" /><path d="M1.7897815,5.2024393 a0.4,0.4 0 1,1 0.8,0 a0.4,0.4 0 1,1 -0.8,0z" transform="matrix(1,0,0,-1,-0,28)" stroke="rgb(100,100,100)" stroke-width="0.0010cm" stroke-linecap="round" stroke-linejoin="round" fill="none" /><path d="M20.6000001,4.9 a0.4,0.4 0 1,1 0.8,0 a0.4,0.4 0 1,1 -0.8,0z" transform="matrix(1,0,0,-1,-0,28)" stroke="rgb(100,100,100)" stroke-width="0.0010cm" stroke-linecap="round" stroke-linejoin="round" fill="none" /><path d="M34.4000005,4.9 a0.15,0.15 0 1,1 0.3,0 a0.15,0.15 0 1,1 -0.3,0z" transform="matrix(1,0,0,-1,-0,28)" stroke="rgb(100,100,100)" stroke-width="0.0010cm" stroke-linecap="round" stroke-linejoin="round" fill="none" /><path d="M14.4000001,8.3 L16.2000001,8.3 16.2000001,6.5 14.4000001,6.5 14.4000001,8.3z" transform="matrix(1,0,0,-1,-0,28)" stroke="rgb(100,100,100)" stroke-width="0.0010cm" stroke-linecap="round" stroke-linejoin="round" fill="none" /><path d="M16.9000001,6.5 L16.9000001,8.3 18.7000001,8.3 18.7000001,6.5 16.9000001,6.5z" transform="matrix(1,0,0,-1,-0,28)" stroke="rgb(100,100,100)" stroke-width="0.0010cm" stroke-linecap="round" stroke-linejoin="round" fill="none" /><path d="M11.9000001,6.5 L11.9000001,8.3 13.7000001,8.3 13.7000001,6.5 11.9000001,6.5z" transform="matrix(1,0,0,-1,-0,28)" stroke="rgb(100,100,100)" stroke-width="0.0010cm" stroke-linecap="round" stroke-linejoin="round" fill="none" /><path d="M9.4000001,6.5 L9.4000001,8.3 11.2000001,8.3 11.2000001,6.5 9.4000001,6.5z" transform="matrix(1,0,0,-1,-0,28)" stroke="rgb(100,100,100)" stroke-width="0.0010cm" stroke-linecap="round" stroke-linejoin="round" fill="none" /><path d="M6.2000001,8.3 L6.2000001,6.5 4.4000001,6.5 4.4000001,8.3 6.2000001,8.3z" transform="matrix(1,0,0,-1,-0,28)" stroke="rgb(100,100,100)" stroke-width="0.0010cm" stroke-linecap="round" stroke-linejoin="round" fill="none" /><path d="M8.7000001,8.3 L8.7000001,6.5 6.9000001,6.5 6.9000001,8.3 8.7000001,8.3z" transform="matrix(1,0,0,-1,-0,28)" stroke="rgb(100,100,100)" stroke-width="0.0010cm" stroke-linecap="round" stroke-linejoin="round" fill="none" /><path d="M23.2000001,7.4 a0.4,0.4 0 1,1 0.8,0 a0.4,0.4 0 1,1 -0.8,0z" transform="matrix(1,0,0,-1,-0,28)" stroke="rgb(100,100,100)" stroke-width="0.0010cm" stroke-linecap="round" stroke-linejoin="round" fill="none" /><path d="M28.4000001,7.4 a0.4,0.4 0 1,1 0.8,0 a0.4,0.4 0 1,1 -0.8,0z" transform="matrix(1,0,0,-1,-0,28)" stroke="rgb(100,100,100)" stroke-width="0.0010cm" stroke-linecap="round" stroke-linejoin="round" fill="none" /><path d="M30.2000005,7.4 a0.15,0.15 0 1,1 0.3,0 a0.15,0.15 0 1,1 -0.3,0z" transform="matrix(1,0,0,-1,-0,28)" stroke="rgb(100,100,100)" stroke-width="0.0010cm" stroke-linecap="round" stroke-linejoin="round" fill="none" /><path d="M34.3000004,7.55 L34.3000004,7.25 30.6000004,7.25 30.6000004,7.55 34.3000004,7.55z" transform="matrix(1,0,0,-1,-0,28)" stroke="rgb(100,100,100)" stroke-width="0.0010cm" stroke-linecap="round" stroke-linejoin="round" fill="none" /><path d="M25.8000001,7.4 a0.4,0.4 0 1,1 0.8,0 a0.4,0.4 0 1,1 -0.8,0z" transform="matrix(1,0,0,-1,-0,28)" stroke="rgb(100,100,100)" stroke-width="0.0010cm" stroke-linecap="round" stroke-linejoin="round" fill="none" /><path d="M1.7897815,7.7024393 a0.4,0.4 0 1,1 0.8,0 a0.4,0.4 0 1,1 -0.8,0z" transform="matrix(1,0,0,-1,-0,28)" stroke="rgb(100,100,100)" stroke-width="0.0010cm" stroke-linecap="round" stroke-linejoin="round" fill="none" /><path d="M20.6000001,7.4 a0.4,0.4 0 1,1 0.8,0 a0.4,0.4 0 1,1 -0.8,0z" transform="matrix(1,0,0,-1,-0,28)" stroke="rgb(100,100,100)" stroke-width="0.0010cm" stroke-linecap="round" stroke-linejoin="round" fill="none" /><path d="M34.4000005,7.4 a0.15,0.15 0 1,1 0.3,0 a0.15,0.15 0 1,1 -0.3,0z" transform="matrix(1,0,0,-1,-0,28)" stroke="rgb(100,100,100)" stroke-width="0.0010cm" stroke-linecap="round" stroke-linejoin="round" fill="none" /><path d="M14.4000001,10.8 L16.2000001,10.8 16.2000001,9 14.4000001,9 14.4000001,10.8z" transform="matrix(1,0,0,-1,-0,28)" stroke="rgb(100,100,100)" stroke-width="0.0010cm" stroke-linecap="round" stroke-linejoin="round" fill="none" /><path d="M16.9000001,9 L16.9000001,10.8 18.7000001,10.8 18.7000001,9 16.9000001,9z" transform="matrix(1,0,0,-1,-0,28)" stroke="rgb(100,100,100)" stroke-width="0.0010cm" stroke-linecap="round" stroke-linejoin="round" fill="none" /><path d="M11.9000001,9 L11.9000001,10.8 13.7000001,10.8 13.7000001,9 11.9000001,9z" transform="matrix(1,0,0,-1,-0,28)" stroke="rgb(100,100,100)" stroke-width="0.0010cm" stroke-linecap="round" stroke-linejoin="round" fill="none" /><path d="M9.4000001,9 L9.4000001,10.8 11.2000001,10.8 11.2000001,9 9.4000001,9z" transform="matrix(1,0,0,-1,-0,28)" stroke="rgb(100,100,100)" stroke-width="0.0010cm" stroke-linecap="round" stroke-linejoin="round" fill="none" /><path d="M6.2000001,10.8 L6.2000001,9 4.4000001,9 4.4000001,10.8 6.2000001,10.8z" transform="matrix(1,0,0,-1,-0,28)" stroke="rgb(100,100,100)" stroke-width="0.0010cm" stroke-linecap="round" stroke-linejoin="round" fill="none" /><path d="M8.7000001,10.8 L8.7000001,9 6.9000001,9 6.9000001,10.8 8.7000001,10.8z" transform="matrix(1,0,0,-1,-0,28)" stroke="rgb(100,100,100)" stroke-width="0.0010cm" stroke-linecap="round" stroke-linejoin="round" fill="none" /><path d="M23.2000001,9.9 a0.4,0.4 0 1,1 0.8,0 a0.4,0.4 0 1,1 -0.8,0z" transform="matrix(1,0,0,-1,-0,28)" stroke="rgb(100,100,100)" stroke-width="0.0010cm" stroke-linecap="round" stroke-linejoin="round" fill="none" /><path d="M28.4000001,9.9 a0.4,0.4 0 1,1 0.8,0 a0.4,0.4 0 1,1 -0.8,0z" transform="matrix(1,0,0,-1,-0,28)" stroke="rgb(100,100,100)" stroke-width="0.0010cm" stroke-linecap="round" stroke-linejoin="round" fill="none" /><path d="M30.2000005,9.9 a0.15,0.15 0 1,1 0.3,0 a0.15,0.15 0 1,1 -0.3,0z" transform="matrix(1,0,0,-1,-0,28)" stroke="rgb(100,100,100)" stroke-width="0.0010cm" stroke-linecap="round" stroke-linejoin="round" fill="none" /><path d="M34.3000004,10.05 L34.3000004,9.75 30.6000004,9.75 30.6000004,10.05 34.3000004,10.05z" transform="matrix(1,0,0,-1,-0,28)" stroke="rgb(100,100,100)" stroke-width="0.0010cm" stroke-linecap="round" stroke-linejoin="round" fill="none" /><path d="M25.8000001,9.9 a0.4,0.4 0 1,1 0.8,0 a0.4,0.4 0 1,1 -0.8,0z" transform="matrix(1,0,0,-1,-0,28)" stroke="rgb(100,100,100)" stroke-width="0.0010cm" stroke-linecap="round" stroke-linejoin="round" fill="none" /><path d="M1.7897815,10.2024393 a0.4,0.4 0 1,1 0.8,0 a0.4,0.4 0 1,1 -0.8,0z" transform="matrix(1,0,0,-1,-0,28)" stroke="rgb(100,100,100)" stroke-width="0.0010cm" stroke-linecap="round" stroke-linejoin="round" fill="none" /><path d="M20.6000001,9.9 a0.4,0.4 0 1,1 0.8,0 a0.4,0.4 0 1,1 -0.8,0z" transform="matrix(1,0,0,-1,-0,28)" stroke="rgb(100,100,100)" stroke-width="0.0010cm" stroke-linecap="round" stroke-linejoin="round" fill="none" /><path d="M34.4000005,9.9 a0.15,0.15 0 1,1 0.3,0 a0.15,0.15 0 1,1 -0.3,0z" transform="matrix(1,0,0,-1,-0,28)" stroke="rgb(100,100,100)" stroke-width="0.0010cm" stroke-linecap="round" stroke-linejoin="round" fill="none" /><path d="M14.4000001,13.3 L16.2000001,13.3 16.2000001,11.5 14.4000001,11.5 14.4000001,13.3z" transform="matrix(1,0,0,-1,-0,28)" stroke="rgb(100,100,100)" stroke-width="0.0010cm" stroke-linecap="round" stroke-linejoin="round" fill="none" /><path d="M16.9000001,11.5 L16.9000001,13.3 18.7000001,13.3 18.7000001,11.5 16.9000001,11.5z" transform="matrix(1,0,0,-1,-0,28)" stroke="rgb(100,100,100)" stroke-width="0.0010cm" stroke-linecap="round" stroke-linejoin="round" fill="none" /><path d="M11.9000001,11.5 L11.9000001,13.3 13.7000001,13.3 13.7000001,11.5 11.9000001,11.5z" transform="matrix(1,0,0,-1,-0,28)" stroke="rgb(100,100,100)" stroke-width="0.0010cm" stroke-linecap="round" stroke-linejoin="round" fill="none" /><path d="M9.4000001,11.5 L9.4000001,13.3 11.2000001,13.3 11.2000001,11.5 9.4000001,11.5z" transform="matrix(1,0,0,-1,-0,28)" stroke="rgb(100,100,100)" stroke-width="0.0010cm" stroke-linecap="round" stroke-linejoin="round" fill="none" /><path d="M6.2000001,13.3 L6.2000001,11.5 4.4000001,11.5 4.4000001,13.3 6.2000001,13.3z" transform="matrix(1,0,0,-1,-0,28)" stroke="rgb(100,100,100)" stroke-width="0.0010cm" stroke-linecap="round" stroke-linejoin="round" fill="none" /><path d="M8.7000001,13.3 L8.7000001,11.5 6.9000001,11.5 6.9000001,13.3 8.7000001,13.3z" transform="matrix(1,0,0,-1,-0,28)" stroke="rgb(100,100,100)" stroke-width="0.0010cm" stroke-linecap="round" stroke-linejoin="round" fill="none" /><path d="M23.2000001,12.4 a0.4,0.4 0 1,1 0.8,0 a0.4,0.4 0 1,1 -0.8,0z" transform="matrix(1,0,0,-1,-0,28)" stroke="rgb(100,100,100)" stroke-width="0.0010cm" stroke-linecap="round" stroke-linejoin="round" fill="none" /><path d="M28.4000001,12.4 a0.4,0.4 0 1,1 0.8,0 a0.4,0.4 0 1,1 -0.8,0z" transform="matrix(1,0,0,-1,-0,28)" stroke="rgb(100,100,100)" stroke-width="0.0010cm" stroke-linecap="round" stroke-linejoin="round" fill="none" /><path d="M30.2000005,12.4 a0.15,0.15 0 1,1 0.3,0 a0.15,0.15 0 1,1 -0.3,0z" transform="matrix(1,0,0,-1,-0,28)" stroke="rgb(100,100,100)" stroke-width="0.0010cm" stroke-linecap="round" stroke-linejoin="round" fill="none" /><path d="M34.3000004,12.55 L34.3000004,12.25 30.6000004,12.25 30.6000004,12.55 34.3000004,12.55z" transform="matrix(1,0,0,-1,-0,28)" stroke="rgb(100,100,100)" stroke-width="0.0010cm" stroke-linecap="round" stroke-linejoin="round" fill="none" /><path d="M25.8000001,12.4 a0.4,0.4 0 1,1 0.8,0 a0.4,0.4 0 1,1 -0.8,0z" transform="matrix(1,0,0,-1,-0,28)" stroke="rgb(100,100,100)" stroke-width="0.0010cm" stroke-linecap="round" stroke-linejoin="round" fill="none" /><path d="M1.7897815,12.7024393 a0.4,0.4 0 1,1 0.8,0 a0.4,0.4 0 1,1 -0.8,0z" transform="matrix(1,0,0,-1,-0,28)" stroke="rgb(100,100,100)" stroke-width="0.0010cm" stroke-linecap="round" stroke-linejoin="round" fill="none" /><path d="M20.6000001,12.4 a0.4,0.4 0 1,1 0.8,0 a0.4,0.4 0 1,1 -0.8,0z" transform="matrix(1,0,0,-1,-0,28)" stroke="rgb(100,100,100)" stroke-width="0.0010cm" stroke-linecap="round" stroke-linejoin="round" fill="none" /><path d="M34.4000005,12.4 a0.15,0.15 0 1,1 0.3,0 a0.15,0.15 0 1,1 -0.3,0z" transform="matrix(1,0,0,-1,-0,28)" stroke="rgb(100,100,100)" stroke-width="0.0010cm" stroke-linecap="round" stroke-linejoin="round" fill="none" /><path d="M14.4000001,15.8 L16.2000001,15.8 16.2000001,14 14.4000001,14 14.4000001,15.8z" transform="matrix(1,0,0,-1,-0,28)" stroke="rgb(100,100,100)" stroke-width="0.0010cm" stroke-linecap="round" stroke-linejoin="round" fill="none" /><path d="M16.9000001,14 L16.9000001,15.8 18.7000001,15.8 18.7000001,14 16.9000001,14z" transform="matrix(1,0,0,-1,-0,28)" stroke="rgb(100,100,100)" stroke-width="0.0010cm" stroke-linecap="round" stroke-linejoin="round" fill="none" /><path d="M11.9000001,14 L11.9000001,15.8 13.7000001,15.8 13.7000001,14 11.9000001,14z" transform="matrix(1,0,0,-1,-0,28)" stroke="rgb(100,100,100)" stroke-width="0.0010cm" stroke-linecap="round" stroke-linejoin="round" fill="none" /><path d="M9.4000001,14 L9.4000001,15.8 11.2000001,15.8 11.2000001,14 9.4000001,14z" transform="matrix(1,0,0,-1,-0,28)" stroke="rgb(100,100,100)" stroke-width="0.0010cm" stroke-linecap="round" stroke-linejoin="round" fill="none" /><path d="M6.2000001,15.8 L6.2000001,14 4.4000001,14 4.4000001,15.8 6.2000001,15.8z" transform="matrix(1,0,0,-1,-0,28)" stroke="rgb(100,100,100)" stroke-width="0.0010cm" stroke-linecap="round" stroke-linejoin="round" fill="none" /><path d="M8.7000001,15.8 L8.7000001,14 6.9000001,14 6.9000001,15.8 8.7000001,15.8z" transform="matrix(1,0,0,-1,-0,28)" stroke="rgb(100,100,100)" stroke-width="0.0010cm" stroke-linecap="round" stroke-linejoin="round" fill="none" /><path d="M23.2000001,14.9 a0.4,0.4 0 1,1 0.8,0 a0.4,0.4 0 1,1 -0.8,0z" transform="matrix(1,0,0,-1,-0,28)" stroke="rgb(100,100,100)" stroke-width="0.0010cm" stroke-linecap="round" stroke-linejoin="round" fill="none" /><path d="M28.4000001,14.9 a0.4,0.4 0 1,1 0.8,0 a0.4,0.4 0 1,1 -0.8,0z" transform="matrix(1,0,0,-1,-0,28)" stroke="rgb(100,100,100)" stroke-width="0.0010cm" stroke-linecap="round" stroke-linejoin="round" fill="none" /><path d="M30.2000005,14.9 a0.15,0.15 0 1,1 0.3,0 a0.15,0.15 0 1,1 -0.3,0z" transform="matrix(1,0,0,-1,-0,28)" stroke="rgb(100,100,100)" stroke-width="0.0010cm" stroke-linecap="round" stroke-linejoin="round" fill="none" /><path d="M34.3000004,15.05 L34.3000004,14.75 30.6000004,14.75 30.6000004,15.05 34.3000004,15.05z" transform="matrix(1,0,0,-1,-0,28)" stroke="rgb(100,100,100)" stroke-width="0.0010cm" stroke-linecap="round" stroke-linejoin="round" fill="none" /><path d="M25.8000001,14.9 a0.4,0.4 0 1,1 0.8,0 a0.4,0.4 0 1,1 -0.8,0z" transform="matrix(1,0,0,-1,-0,28)" stroke="rgb(100,100,100)" stroke-width="0.0010cm" stroke-linecap="round" stroke-linejoin="round" fill="none" /><path d="M1.7897815,15.2024393 a0.4,0.4 0 1,1 0.8,0 a0.4,0.4 0 1,1 -0.8,0z" transform="matrix(1,0,0,-1,-0,28)" stroke="rgb(100,100,100)" stroke-width="0.0010cm" stroke-linecap="round" stroke-linejoin="round" fill="none" /><path d="M20.6000001,14.9 a0.4,0.4 0 1,1 0.8,0 a0.4,0.4 0 1,1 -0.8,0z" transform="matrix(1,0,0,-1,-0,28)" stroke="rgb(100,100,100)" stroke-width="0.0010cm" stroke-linecap="round" stroke-linejoin="round" fill="none" /><path d="M34.4000005,14.9 a0.15,0.15 0 1,1 0.3,0 a0.15,0.15 0 1,1 -0.3,0z" transform="matrix(1,0,0,-1,-0,28)" stroke="rgb(100,100,100)" stroke-width="0.0010cm" stroke-linecap="round" stroke-linejoin="round" fill="none" /><path d="M14.4000001,18.3 L16.2000001,18.3 16.2000001,16.5 14.4000001,16.5 14.4000001,18.3z" transform="matrix(1,0,0,-1,-0,28)" stroke="rgb(100,100,100)" stroke-width="0.0010cm" stroke-linecap="round" stroke-linejoin="round" fill="none" /><path d="M16.9000001,16.5 L16.9000001,18.3 18.7000001,18.3 18.7000001,16.5 16.9000001,16.5z" transform="matrix(1,0,0,-1,-0,28)" stroke="rgb(100,100,100)" stroke-width="0.0010cm" stroke-linecap="round" stroke-linejoin="round" fill="none" /><path d="M11.9000001,16.5 L11.9000001,18.3 13.7000001,18.3 13.7000001,16.5 11.9000001,16.5z" transform="matrix(1,0,0,-1,-0,28)" stroke="rgb(100,100,100)" stroke-width="0.0010cm" stroke-linecap="round" stroke-linejoin="round" fill="none" /><path d="M9.4000001,16.5 L9.4000001,18.3 11.2000001,18.3 11.2000001,16.5 9.4000001,16.5z" transform="matrix(1,0,0,-1,-0,28)" stroke="rgb(100,100,100)" stroke-width="0.0010cm" stroke-linecap="round" stroke-linejoin="round" fill="none" /><path d="M6.2000001,18.3 L6.2000001,16.5 4.4000001,16.5 4.4000001,18.3 6.2000001,18.3z" transform="matrix(1,0,0,-1,-0,28)" stroke="rgb(100,100,100)" stroke-width="0.0010cm" stroke-linecap="round" stroke-linejoin="round" fill="none" /><path d="M8.7000001,18.3 L8.7000001,16.5 6.9000001,16.5 6.9000001,18.3 8.7000001,18.3z" transform="matrix(1,0,0,-1,-0,28)" stroke="rgb(100,100,100)" stroke-width="0.0010cm" stroke-linecap="round" stroke-linejoin="round" fill="none" /><path d="M23.2000001,17.4 a0.4,0.4 0 1,1 0.8,0 a0.4,0.4 0 1,1 -0.8,0z" transform="matrix(1,0,0,-1,-0,28)" stroke="rgb(100,100,100)" stroke-width="0.0010cm" stroke-linecap="round" stroke-linejoin="round" fill="none" /><path d="M28.4000001,17.4 a0.4,0.4 0 1,1 0.8,0 a0.4,0.4 0 1,1 -0.8,0z" transform="matrix(1,0,0,-1,-0,28)" stroke="rgb(100,100,100)" stroke-width="0.0010cm" stroke-linecap="round" stroke-linejoin="round" fill="none" /><path d="M30.2000005,17.4 a0.15,0.15 0 1,1 0.3,0 a0.15,0.15 0 1,1 -0.3,0z" transform="matrix(1,0,0,-1,-0,28)" stroke="rgb(100,100,100)" stroke-width="0.0010cm" stroke-linecap="round" stroke-linejoin="round" fill="none" /><path d="M34.3000004,17.55 L34.3000004,17.25 30.6000004,17.25 30.6000004,17.55 34.3000004,17.55z" transform="matrix(1,0,0,-1,-0,28)" stroke="rgb(100,100,100)" stroke-width="0.0010cm" stroke-linecap="round" stroke-linejoin="round" fill="none" /><path d="M25.8000001,17.4 a0.4,0.4 0 1,1 0.8,0 a0.4,0.4 0 1,1 -0.8,0z" transform="matrix(1,0,0,-1,-0,28)" stroke="rgb(100,100,100)" stroke-width="0.0010cm" stroke-linecap="round" stroke-linejoin="round" fill="none" /><path d="M1.7897815,17.7024393 a0.4,0.4 0 1,1 0.8,0 a0.4,0.4 0 1,1 -0.8,0z" transform="matrix(1,0,0,-1,-0,28)" stroke="rgb(100,100,100)" stroke-width="0.0010cm" stroke-linecap="round" stroke-linejoin="round" fill="none" /><path d="M20.6000001,17.4 a0.4,0.4 0 1,1 0.8,0 a0.4,0.4 0 1,1 -0.8,0z" transform="matrix(1,0,0,-1,-0,28)" stroke="rgb(100,100,100)" stroke-width="0.0010cm" stroke-linecap="round" stroke-linejoin="round" fill="none" /><path d="M34.4000005,17.4 a0.15,0.15 0 1,1 0.3,0 a0.15,0.15 0 1,1 -0.3,0z" transform="matrix(1,0,0,-1,-0,28)" stroke="rgb(100,100,100)" stroke-width="0.0010cm" stroke-linecap="round" stroke-linejoin="round" fill="none" /><path d="M14.4000001,20.8 L16.2000001,20.8 16.2000001,19 14.4000001,19 14.4000001,20.8z" transform="matrix(1,0,0,-1,-0,28)" stroke="rgb(100,100,100)" stroke-width="0.0010cm" stroke-linecap="round" stroke-linejoin="round" fill="none" /><path d="M16.9000001,19 L16.9000001,20.8 18.7000001,20.8 18.7000001,19 16.9000001,19z" transform="matrix(1,0,0,-1,-0,28)" stroke="rgb(100,100,100)" stroke-width="0.0010cm" stroke-linecap="round" stroke-linejoin="round" fill="none" /><path d="M11.9000001,19 L11.9000001,20.8 13.7000001,20.8 13.7000001,19 11.9000001,19z" transform="matrix(1,0,0,-1,-0,28)" stroke="rgb(100,100,100)" stroke-width="0.0010cm" stroke-linecap="round" stroke-linejoin="round" fill="none" /><path d="M9.4000001,19 L9.4000001,20.8 11.2000001,20.8 11.2000001,19 9.4000001,19z" transform="matrix(1,0,0,-1,-0,28)" stroke="rgb(100,100,100)" stroke-width="0.0010cm" stroke-linecap="round" stroke-linejoin="round" fill="none" /><path d="M6.2000001,20.8 L6.2000001,19 4.4000001,19 4.4000001,20.8 6.2000001,20.8z" transform="matrix(1,0,0,-1,-0,28)" stroke="rgb(100,100,100)" stroke-width="0.0010cm" stroke-linecap="round" stroke-linejoin="round" fill="none" /><path d="M8.7000001,20.8 L8.7000001,19 6.9000001,19 6.9000001,20.8 8.7000001,20.8z" transform="matrix(1,0,0,-1,-0,28)" stroke="rgb(100,100,100)" stroke-width="0.0010cm" stroke-linecap="round" stroke-linejoin="round" fill="none" /><path d="M23.2000001,19.9 a0.4,0.4 0 1,1 0.8,0 a0.4,0.4 0 1,1 -0.8,0z" transform="matrix(1,0,0,-1,-0,28)" stroke="rgb(100,100,100)" stroke-width="0.0010cm" stroke-linecap="round" stroke-linejoin="round" fill="none" /><path d="M28.4000001,19.9 a0.4,0.4 0 1,1 0.8,0 a0.4,0.4 0 1,1 -0.8,0z" transform="matrix(1,0,0,-1,-0,28)" stroke="rgb(100,100,100)" stroke-width="0.0010cm" stroke-linecap="round" stroke-linejoin="round" fill="none" /><path d="M30.2000005,19.9 a0.15,0.15 0 1,1 0.3,0 a0.15,0.15 0 1,1 -0.3,0z" transform="matrix(1,0,0,-1,-0,28)" stroke="rgb(100,100,100)" stroke-width="0.0010cm" stroke-linecap="round" stroke-linejoin="round" fill="none" /><path d="M34.3000004,20.05 L34.3000004,19.75 30.6000004,19.75 30.6000004,20.05 34.3000004,20.05z" transform="matrix(1,0,0,-1,-0,28)" stroke="rgb(100,100,100)" stroke-width="0.0010cm" stroke-linecap="round" stroke-linejoin="round" fill="none" /><path d="M25.8000001,19.9 a0.4,0.4 0 1,1 0.8,0 a0.4,0.4 0 1,1 -0.8,0z" transform="matrix(1,0,0,-1,-0,28)" stroke="rgb(100,100,100)" stroke-width="0.0010cm" stroke-linecap="round" stroke-linejoin="round" fill="none" /><path d="M1.7897815,20.2024393 a0.4,0.4 0 1,1 0.8,0 a0.4,0.4 0 1,1 -0.8,0z" transform="matrix(1,0,0,-1,-0,28)" stroke="rgb(100,100,100)" stroke-width="0.0010cm" stroke-linecap="round" stroke-linejoin="round" fill="none" /><path d="M20.6000001,19.9 a0.4,0.4 0 1,1 0.8,0 a0.4,0.4 0 1,1 -0.8,0z" transform="matrix(1,0,0,-1,-0,28)" stroke="rgb(100,100,100)" stroke-width="0.0010cm" stroke-linecap="round" stroke-linejoin="round" fill="none" /><path d="M34.4000005,19.9 a0.15,0.15 0 1,1 0.3,0 a0.15,0.15 0 1,1 -0.3,0z" transform="matrix(1,0,0,-1,-0,28)" stroke="rgb(100,100,100)" stroke-width="0.0010cm" stroke-linecap="round" stroke-linejoin="round" fill="none" /><path d="M1.7889256,24.3012192 a0.4,0.4 0 1,1 0.8,0 a0.4,0.4 0 1,1 -0.8,0z" transform="matrix(1,0,0,-1,-0,28)" stroke="rgb(100,100,100)" stroke-width="0.0010cm" stroke-linecap="round" stroke-linejoin="round" fill="none" /><path d="M5.2445945,24.3012192 a0.15,0.15 0 1,1 0.3,0 a0.15,0.15 0 1,1 -0.3,0z" transform="matrix(1,0,0,-1,-0,28)" stroke="rgb(100,100,100)" stroke-width="0.0010cm" stroke-linecap="round" stroke-linejoin="round" fill="none" /><path d="M9.4444418,24.2926593 a0.15,0.15 0 1,1 0.3,0 a0.15,0.15 0 1,1 -0.3,0z" transform="matrix(1,0,0,-1,-0,28)" stroke="rgb(100,100,100)" stroke-width="0.0010cm" stroke-linecap="round" stroke-linejoin="round" fill="none" /><path d="M5.644457,24.4447755 L9.344457,24.4447755 9.344457,24.1448169 5.6444569,24.1448169 5.644457,24.4447755z" transform="matrix(1,0,0,-1,-0,28)" stroke="rgb(100,100,100)" stroke-width="0.0010cm" stroke-linecap="round" stroke-linejoin="round" fill="none" /><path d="M12.3999883,24.3012192 a0.4,0.4 0 1,1 0.8,0 a0.4,0.4 0 1,1 -0.8,0z" transform="matrix(1,0,0,-1,-0,28)" stroke="rgb(100,100,100)" stroke-width="0.0010cm" stroke-linecap="round" stroke-linejoin="round" fill="none" /><path d="M14.8999883,24.3012192 a0.4,0.4 0 1,1 0.8,0 a0.4,0.4 0 1,1 -0.8,0z" transform="matrix(1,0,0,-1,-0,28)" stroke="rgb(100,100,100)" stroke-width="0.0010cm" stroke-linecap="round" stroke-linejoin="round" fill="none" /><path d="M17.3999883,24.3012192 a0.4,0.4 0 1,1 0.8,0 a0.4,0.4 0 1,1 -0.8,0z" transform="matrix(1,0,0,-1,-0,28)" stroke="rgb(100,100,100)" stroke-width="0.0010cm" stroke-linecap="round" stroke-linejoin="round" fill="none" /></svg>